<svg width="114" height="54" viewBox="0 0 114 54" fill="none" xmlns="http://www.w3.org/2000/svg">
<path d="M7.22159 23V5.54545H13.9034C15.1648 5.54545 16.2131 5.74432 17.0483 6.14204C17.8892 6.53409 18.517 7.07102 18.9318 7.75284C19.3523 8.43466 19.5625 9.20739 19.5625 10.071C19.5625 10.7812 19.4261 11.3892 19.1534 11.8949C18.8807 12.3949 18.5142 12.8011 18.054 13.1136C17.5938 13.4261 17.0795 13.6506 16.5114 13.7869V13.9574C17.1307 13.9915 17.7244 14.1818 18.2926 14.5284C18.8665 14.8693 19.3352 15.3523 19.6989 15.9773C20.0625 16.6023 20.2443 17.358 20.2443 18.2443C20.2443 19.1477 20.0256 19.9602 19.5881 20.6818C19.1506 21.3977 18.4915 21.9631 17.6108 22.3778C16.7301 22.7926 15.6222 23 14.2869 23H7.22159ZM10.3835 20.358H13.7841C14.9318 20.358 15.7585 20.1392 16.2642 19.7017C16.7756 19.2585 17.0312 18.6903 17.0312 17.9972C17.0312 17.4801 16.9034 17.0142 16.6477 16.5994C16.392 16.179 16.0284 15.8494 15.5568 15.6108C15.0852 15.3665 14.5227 15.2443 13.8693 15.2443H10.3835V20.358ZM10.3835 12.9688H13.5114C14.0568 12.9688 14.5483 12.8693 14.9858 12.6705C15.4233 12.4659 15.767 12.179 16.017 11.8097C16.2727 11.4347 16.4006 10.9915 16.4006 10.4801C16.4006 9.80398 16.1619 9.24716 15.6847 8.80966C15.2131 8.37216 14.5114 8.15341 13.5795 8.15341H10.3835V12.9688ZM24.9467 14.1705H28.8075C30.478 14.1705 31.7706 14.5767 32.6854 15.3892C33.6001 16.2017 34.0604 17.267 34.0661 18.5852C34.0604 19.4432 33.8501 20.2045 33.4354 20.8693C33.0263 21.5341 32.4297 22.0568 31.6456 22.4375C30.8672 22.8125 29.9212 23 28.8075 23H22.8587V9.90909H25.8331V20.4688H28.8075C29.478 20.4688 30.0291 20.2983 30.4609 19.9574C30.8928 19.6108 31.1087 19.1676 31.1087 18.6278C31.1087 18.0597 30.8928 17.5966 30.4609 17.2386C30.0291 16.8807 29.478 16.7017 28.8075 16.7017H24.9467V14.1705ZM42.5057 23.2557C41.1932 23.2557 40.0597 22.983 39.1051 22.4375C38.1563 21.8864 37.4261 21.108 36.9148 20.1023C36.4034 19.0909 36.1477 17.9006 36.1477 16.5312C36.1477 15.1847 36.4034 14.0028 36.9148 12.9858C37.4318 11.9631 38.1534 11.1676 39.0795 10.5994C40.0057 10.0256 41.0938 9.73864 42.3438 9.73864C43.1506 9.73864 43.9119 9.86932 44.6278 10.1307C45.3494 10.3864 45.9858 10.7841 46.5369 11.3239C47.0938 11.8636 47.5313 12.5511 47.8494 13.3864C48.1676 14.2159 48.3267 15.2045 48.3267 16.3523V17.2983H37.5966V15.2188H45.3693C45.3636 14.6278 45.2358 14.1023 44.9858 13.642C44.7358 13.1761 44.3864 12.8097 43.9375 12.5426C43.4943 12.2756 42.9773 12.142 42.3864 12.142C41.7557 12.142 41.2017 12.2955 40.7244 12.6023C40.2472 12.9034 39.875 13.3011 39.608 13.7955C39.3466 14.2841 39.2131 14.821 39.2074 15.4062V17.2216C39.2074 17.983 39.3466 18.6364 39.625 19.1818C39.9034 19.7216 40.2926 20.1364 40.7926 20.4261C41.2926 20.7102 41.8778 20.8523 42.5483 20.8523C42.9972 20.8523 43.4034 20.7898 43.767 20.6648C44.1307 20.5341 44.446 20.3438 44.7131 20.0938C44.9801 19.8438 45.1818 19.5341 45.3182 19.1648L48.1989 19.4886C48.017 20.25 47.6705 20.9148 47.1591 21.483C46.6534 22.0455 46.0057 22.483 45.2159 22.7955C44.4261 23.1023 43.5227 23.2557 42.5057 23.2557ZM49.8459 12.4403V9.90909H61.3004V12.4403H57.0646V23H54.0817V12.4403H49.8459ZM72.7486 15.1761V17.7074H65.777V15.1761H72.7486ZM66.7315 9.90909V23H63.7571V9.90909H66.7315ZM74.7685 9.90909V23H71.8026V9.90909H74.7685ZM81.657 23.2642C80.8274 23.2642 80.0803 23.1165 79.4155 22.821C78.7564 22.5199 78.2337 22.0767 77.8473 21.4915C77.4666 20.9062 77.2763 20.1847 77.2763 19.3267C77.2763 18.5881 77.4126 17.9773 77.6854 17.4943C77.9581 17.0114 78.3303 16.625 78.8018 16.3352C79.2734 16.0455 79.8047 15.8267 80.3956 15.679C80.9922 15.5256 81.6087 15.4148 82.245 15.3466C83.0121 15.267 83.6342 15.196 84.1115 15.1335C84.5888 15.0653 84.9354 14.9631 85.1513 14.8267C85.3729 14.6847 85.4837 14.4659 85.4837 14.1705V14.1193C85.4837 13.4773 85.2933 12.9801 84.9126 12.6278C84.532 12.2756 83.9837 12.0994 83.2678 12.0994C82.5121 12.0994 81.9126 12.2642 81.4695 12.5938C81.032 12.9233 80.7365 13.3125 80.5831 13.7614L77.7024 13.3523C77.9297 12.5568 78.3047 11.892 78.8274 11.358C79.3501 10.8182 79.9893 10.4148 80.745 10.1477C81.5007 9.875 82.3359 9.73864 83.2507 9.73864C83.8814 9.73864 84.5092 9.8125 85.1342 9.96023C85.7592 10.108 86.3303 10.3523 86.8473 10.6932C87.3643 11.0284 87.7791 11.4858 88.0916 12.0653C88.4098 12.6449 88.5689 13.3693 88.5689 14.2386V23H85.603V21.2017H85.5007C85.3132 21.5653 85.049 21.9062 84.7081 22.2244C84.3729 22.5369 83.9496 22.7898 83.4382 22.983C82.9325 23.1705 82.3388 23.2642 81.657 23.2642ZM82.4581 20.9972C83.0774 20.9972 83.6143 20.875 84.0689 20.6307C84.5234 20.3807 84.8729 20.0511 85.1172 19.642C85.3672 19.233 85.4922 18.7869 85.4922 18.304V16.7614C85.3956 16.8409 85.2308 16.9148 84.9979 16.983C84.7706 17.0511 84.5149 17.1108 84.2308 17.1619C83.9467 17.2131 83.6655 17.2585 83.3871 17.2983C83.1087 17.3381 82.8672 17.3722 82.6626 17.4006C82.2024 17.4631 81.7905 17.5653 81.4268 17.7074C81.0632 17.8494 80.7763 18.0483 80.5661 18.304C80.3558 18.554 80.2507 18.8778 80.2507 19.2756C80.2507 19.8438 80.4581 20.2727 80.8729 20.5625C81.2876 20.8523 81.8161 20.9972 82.4581 20.9972ZM99.2053 19.4119L103.092 9.90909H105.58L100.288 23H98.1314L92.9581 9.90909H95.4212L99.2053 19.4119ZM94.6456 9.90909V23H91.6712V9.90909H94.6456ZM103.893 23V9.90909H106.842V23H103.893Z" fill="white"/>
<path d="M1.05682 50V41.2727H4.72159C5.75568 41.2727 6.57197 41.4792 7.17045 41.892C7.77273 42.3049 8.07386 42.8807 8.07386 43.6193C8.07386 44.108 7.90341 44.5076 7.5625 44.8182C7.22538 45.125 6.76515 45.3314 6.18182 45.4375C6.64015 45.4754 7.04167 45.5909 7.38636 45.7841C7.73485 45.9773 8.00758 46.2311 8.20455 46.5455C8.40152 46.8598 8.5 47.2216 8.5 47.6307C8.5 48.1117 8.37311 48.5303 8.11932 48.8864C7.86932 49.2386 7.50379 49.5133 7.02273 49.7102C6.54545 49.9034 5.96591 50 5.28409 50H1.05682ZM2.98295 48.3807H5.28409C5.66288 48.3807 5.96023 48.2917 6.17614 48.1136C6.39205 47.9318 6.5 47.6856 6.5 47.375C6.5 47.0152 6.39205 46.733 6.17614 46.5284C5.96023 46.3201 5.66288 46.2159 5.28409 46.2159H2.98295V48.3807ZM2.98295 44.8864H4.76136C5.04167 44.8864 5.2822 44.8466 5.48295 44.767C5.68371 44.6837 5.83712 44.5682 5.94318 44.4205C6.04924 44.2689 6.10227 44.089 6.10227 43.8807C6.10227 43.5814 5.97917 43.3466 5.73295 43.1761C5.49053 43.0057 5.15341 42.9205 4.72159 42.9205H2.98295V44.8864ZM12.1804 47.2159L15.6747 41.2727H17.7884V50H15.7997V44.0511L12.3168 50H10.1974V41.2727H12.1804V47.2159ZM19.4176 47.608H21.4574C21.4763 47.9337 21.6222 48.1856 21.8949 48.3636C22.1676 48.5417 22.5218 48.6307 22.9574 48.6307C23.4006 48.6307 23.7737 48.5341 24.0767 48.3409C24.3835 48.1439 24.5369 47.8466 24.5369 47.4489C24.5369 47.214 24.4782 47.0076 24.3608 46.8295C24.2434 46.6477 24.0786 46.5076 23.8665 46.4091C23.6544 46.3106 23.4044 46.2614 23.1165 46.2614H21.7812V44.8011H23.1165C23.5445 44.8011 23.8684 44.7027 24.0881 44.5057C24.3116 44.3087 24.4233 44.0606 24.4233 43.7614C24.4233 43.4394 24.3059 43.178 24.071 42.9773C23.84 42.7765 23.5199 42.6761 23.1108 42.6761C22.7017 42.6761 22.3608 42.7689 22.0881 42.9545C21.8191 43.1402 21.679 43.3788 21.6676 43.6705H19.6392C19.6468 43.1629 19.7983 42.7216 20.0938 42.3466C20.393 41.9716 20.7945 41.6799 21.2983 41.4716C21.8059 41.2633 22.3778 41.1591 23.0142 41.1591C23.696 41.1591 24.285 41.2614 24.7812 41.4659C25.2775 41.6705 25.66 41.9564 25.929 42.3239C26.1979 42.6875 26.3324 43.1155 26.3324 43.608C26.3324 44.0814 26.1847 44.4735 25.8892 44.7841C25.5938 45.0909 25.196 45.3106 24.696 45.4432V45.5341C25.0407 45.553 25.3513 45.6515 25.6278 45.8295C25.9044 46.0038 26.1241 46.2405 26.2869 46.5398C26.4498 46.839 26.5312 47.1856 26.5312 47.5795C26.5312 48.1136 26.3778 48.5758 26.071 48.9659C25.7642 49.3523 25.3419 49.6496 24.804 49.858C24.2699 50.0663 23.6581 50.1705 22.9688 50.1705C22.2983 50.1705 21.6979 50.0701 21.1676 49.8693C20.6411 49.6648 20.2225 49.3712 19.9119 48.9886C19.6013 48.6061 19.4366 48.1458 19.4176 47.608ZM30.6619 50.1761C30.1089 50.1761 29.6108 50.0777 29.1676 49.8807C28.7282 49.6799 28.3797 49.3845 28.1222 48.9943C27.8684 48.6042 27.7415 48.1231 27.7415 47.5511C27.7415 47.0587 27.8324 46.6515 28.0142 46.3295C28.196 46.0076 28.4441 45.75 28.7585 45.5568C29.0729 45.3636 29.4271 45.2178 29.821 45.1193C30.2188 45.017 30.6297 44.9432 31.054 44.8977C31.5653 44.8447 31.9801 44.7973 32.2983 44.7557C32.6165 44.7102 32.8475 44.642 32.9915 44.5511C33.1392 44.4564 33.2131 44.3106 33.2131 44.1136V44.0795C33.2131 43.6515 33.0862 43.3201 32.8324 43.0852C32.5786 42.8504 32.2131 42.733 31.7358 42.733C31.232 42.733 30.8324 42.8428 30.5369 43.0625C30.2453 43.2822 30.0483 43.5417 29.946 43.8409L28.0256 43.5682C28.1771 43.0379 28.4271 42.5947 28.7756 42.2386C29.1241 41.8788 29.5502 41.6098 30.054 41.4318C30.5578 41.25 31.1146 41.1591 31.7244 41.1591C32.1449 41.1591 32.5634 41.2083 32.9801 41.3068C33.3968 41.4053 33.7775 41.5682 34.1222 41.7955C34.4669 42.0189 34.7434 42.3239 34.9517 42.7102C35.1638 43.0966 35.2699 43.5795 35.2699 44.1591V50H33.2926V48.8011H33.2244C33.0994 49.0436 32.9233 49.2708 32.696 49.483C32.4725 49.6913 32.1903 49.8598 31.8494 49.9886C31.5123 50.1136 31.1165 50.1761 30.6619 50.1761ZM31.196 48.6648C31.6089 48.6648 31.9669 48.5833 32.2699 48.4205C32.5729 48.2538 32.8059 48.0341 32.9688 47.7614C33.1354 47.4886 33.2188 47.1913 33.2188 46.8693V45.8409C33.1544 45.8939 33.0445 45.9432 32.8892 45.9886C32.7377 46.0341 32.5672 46.0739 32.3778 46.108C32.1884 46.142 32.0009 46.1723 31.8153 46.1989C31.6297 46.2254 31.4688 46.2481 31.3324 46.267C31.0256 46.3087 30.7509 46.3769 30.5085 46.4716C30.2661 46.5663 30.0748 46.6989 29.9347 46.8693C29.7945 47.036 29.7244 47.2519 29.7244 47.517C29.7244 47.8958 29.8627 48.1818 30.1392 48.375C30.4157 48.5682 30.768 48.6648 31.196 48.6648ZM47.3011 44.7841V46.4716H42.6534V44.7841H47.3011ZM43.2898 41.2727V50H41.3068V41.2727H43.2898ZM48.6477 41.2727V50H46.6705V41.2727H48.6477ZM53.2401 50.1761C52.687 50.1761 52.1889 50.0777 51.7457 49.8807C51.3063 49.6799 50.9579 49.3845 50.7003 48.9943C50.4465 48.6042 50.3196 48.1231 50.3196 47.5511C50.3196 47.0587 50.4105 46.6515 50.5923 46.3295C50.7741 46.0076 51.0223 45.75 51.3366 45.5568C51.651 45.3636 52.0052 45.2178 52.3991 45.1193C52.7969 45.017 53.2079 44.9432 53.6321 44.8977C54.1435 44.8447 54.5582 44.7973 54.8764 44.7557C55.1946 44.7102 55.4257 44.642 55.5696 44.5511C55.7173 44.4564 55.7912 44.3106 55.7912 44.1136V44.0795C55.7912 43.6515 55.6643 43.3201 55.4105 43.0852C55.1567 42.8504 54.7912 42.733 54.3139 42.733C53.8101 42.733 53.4105 42.8428 53.1151 43.0625C52.8234 43.2822 52.6264 43.5417 52.5241 43.8409L50.6037 43.5682C50.7552 43.0379 51.0052 42.5947 51.3537 42.2386C51.7022 41.8788 52.1283 41.6098 52.6321 41.4318C53.1359 41.25 53.6927 41.1591 54.3026 41.1591C54.723 41.1591 55.1416 41.2083 55.5582 41.3068C55.9749 41.4053 56.3556 41.5682 56.7003 41.7955C57.045 42.0189 57.3215 42.3239 57.5298 42.7102C57.742 43.0966 57.848 43.5795 57.848 44.1591V50H55.8707V48.8011H55.8026C55.6776 49.0436 55.5014 49.2708 55.2741 49.483C55.0507 49.6913 54.7685 49.8598 54.4276 49.9886C54.0904 50.1136 53.6946 50.1761 53.2401 50.1761ZM53.7741 48.6648C54.187 48.6648 54.545 48.5833 54.848 48.4205C55.151 48.2538 55.384 48.0341 55.5469 47.7614C55.7135 47.4886 55.7969 47.1913 55.7969 46.8693V45.8409C55.7325 45.8939 55.6226 45.9432 55.4673 45.9886C55.3158 46.0341 55.1454 46.0739 54.956 46.108C54.7666 46.142 54.5791 46.1723 54.3935 46.1989C54.2079 46.2254 54.0469 46.2481 53.9105 46.267C53.6037 46.3087 53.3291 46.3769 53.0866 46.4716C52.8442 46.5663 52.6529 46.6989 52.5128 46.8693C52.3726 47.036 52.3026 47.2519 52.3026 47.517C52.3026 47.8958 52.4408 48.1818 52.7173 48.375C52.9938 48.5682 53.3461 48.6648 53.7741 48.6648ZM63.8622 50V48.4773L67.902 44.517C68.2884 44.1269 68.6103 43.7803 68.8679 43.4773C69.1255 43.1742 69.3187 42.8807 69.4474 42.5966C69.5762 42.3125 69.6406 42.0095 69.6406 41.6875C69.6406 41.3201 69.5573 41.0057 69.3906 40.7443C69.224 40.4792 68.9948 40.2746 68.7031 40.1307C68.4115 39.9867 68.08 39.9148 67.7088 39.9148C67.3262 39.9148 66.991 39.9943 66.7031 40.1534C66.4152 40.3087 66.1918 40.5303 66.0327 40.8182C65.8774 41.1061 65.7997 41.4489 65.7997 41.8466H63.794C63.794 41.108 63.9626 40.4659 64.2997 39.9205C64.6368 39.375 65.1009 38.9527 65.6918 38.6534C66.2865 38.3542 66.9683 38.2045 67.7372 38.2045C68.5175 38.2045 69.2031 38.3504 69.794 38.642C70.3849 38.9337 70.8433 39.3333 71.169 39.8409C71.4986 40.3485 71.6634 40.928 71.6634 41.5795C71.6634 42.0152 71.58 42.4432 71.4134 42.8636C71.2467 43.2841 70.9531 43.75 70.5327 44.2614C70.116 44.7727 69.5308 45.392 68.777 46.1193L66.7713 48.1591V48.2386H71.8395V50H63.8622ZM83.5639 41.2727V42.9602H79.8026V50H77.7912V41.2727H83.5639ZM88.6605 50.1705C87.8082 50.1705 87.0696 49.983 86.4446 49.608C85.8196 49.233 85.3348 48.7083 84.9901 48.0341C84.6491 47.3598 84.4787 46.572 84.4787 45.6705C84.4787 44.7689 84.6491 43.9792 84.9901 43.3011C85.3348 42.6231 85.8196 42.0966 86.4446 41.7216C87.0696 41.3466 87.8082 41.1591 88.6605 41.1591C89.5128 41.1591 90.2514 41.3466 90.8764 41.7216C91.5014 42.0966 91.9844 42.6231 92.3253 43.3011C92.67 43.9792 92.8423 44.7689 92.8423 45.6705C92.8423 46.572 92.67 47.3598 92.3253 48.0341C91.9844 48.7083 91.5014 49.233 90.8764 49.608C90.2514 49.983 89.5128 50.1705 88.6605 50.1705ZM88.6719 48.5227C89.134 48.5227 89.5204 48.3958 89.831 48.142C90.1416 47.8845 90.3726 47.5398 90.5241 47.108C90.6795 46.6761 90.7571 46.1951 90.7571 45.6648C90.7571 45.1307 90.6795 44.6477 90.5241 44.2159C90.3726 43.7803 90.1416 43.4337 89.831 43.1761C89.5204 42.9186 89.134 42.7898 88.6719 42.7898C88.1984 42.7898 87.8045 42.9186 87.4901 43.1761C87.1795 43.4337 86.9465 43.7803 86.7912 44.2159C86.6397 44.6477 86.5639 45.1307 86.5639 45.6648C86.5639 46.1951 86.6397 46.6761 86.7912 47.108C86.9465 47.5398 87.1795 47.8845 87.4901 48.142C87.8045 48.3958 88.1984 48.5227 88.6719 48.5227ZM93.8153 52.5341V48.3068H94.5085C94.6941 48.1629 94.8494 47.9678 94.9744 47.7216C95.0994 47.4716 95.2017 47.178 95.2812 46.8409C95.3646 46.5 95.4328 46.1193 95.4858 45.6989C95.5388 45.2746 95.5862 44.8182 95.6278 44.3295L95.8778 41.2727H102.185V48.3068H103.537V52.5341H101.548V50H95.8381V52.5341H93.8153ZM96.6222 48.3068H100.219V42.9318H97.6619L97.5256 44.3295C97.4498 45.2538 97.3494 46.0455 97.2244 46.7045C97.0994 47.3636 96.8987 47.8977 96.6222 48.3068ZM107.584 50.1761C107.031 50.1761 106.533 50.0777 106.089 49.8807C105.65 49.6799 105.302 49.3845 105.044 48.9943C104.79 48.6042 104.663 48.1231 104.663 47.5511C104.663 47.0587 104.754 46.6515 104.936 46.3295C105.118 46.0076 105.366 45.75 105.68 45.5568C105.995 45.3636 106.349 45.2178 106.743 45.1193C107.141 45.017 107.552 44.9432 107.976 44.8977C108.487 44.8447 108.902 44.7973 109.22 44.7557C109.538 44.7102 109.769 44.642 109.913 44.5511C110.061 44.4564 110.135 44.3106 110.135 44.1136V44.0795C110.135 43.6515 110.008 43.3201 109.754 43.0852C109.5 42.8504 109.135 42.733 108.658 42.733C108.154 42.733 107.754 42.8428 107.459 43.0625C107.167 43.2822 106.97 43.5417 106.868 43.8409L104.947 43.5682C105.099 43.0379 105.349 42.5947 105.697 42.2386C106.046 41.8788 106.472 41.6098 106.976 41.4318C107.48 41.25 108.036 41.1591 108.646 41.1591C109.067 41.1591 109.485 41.2083 109.902 41.3068C110.319 41.4053 110.699 41.5682 111.044 41.7955C111.389 42.0189 111.665 42.3239 111.874 42.7102C112.086 43.0966 112.192 43.5795 112.192 44.1591V50H110.214V48.8011H110.146C110.021 49.0436 109.845 49.2708 109.618 49.483C109.394 49.6913 109.112 49.8598 108.771 49.9886C108.434 50.1136 108.038 50.1761 107.584 50.1761ZM108.118 48.6648C108.531 48.6648 108.889 48.5833 109.192 48.4205C109.495 48.2538 109.728 48.0341 109.891 47.7614C110.057 47.4886 110.141 47.1913 110.141 46.8693V45.8409C110.076 45.8939 109.966 45.9432 109.811 45.9886C109.66 46.0341 109.489 46.0739 109.3 46.108C109.11 46.142 108.923 46.1723 108.737 46.1989C108.552 46.2254 108.391 46.2481 108.254 46.267C107.947 46.3087 107.673 46.3769 107.43 46.4716C107.188 46.5663 106.997 46.6989 106.857 46.8693C106.716 47.036 106.646 47.2519 106.646 47.517C106.646 47.8958 106.785 48.1818 107.061 48.375C107.338 48.5682 107.69 48.6648 108.118 48.6648Z" fill="white"/>
</svg>
