<svg width="114" height="54" viewBox="0 0 114 54" fill="none" xmlns="http://www.w3.org/2000/svg">
<path d="M15.2216 5.54545H18.358V17.4432H18.5199L26.7273 5.54545H29.5653V23H26.4034V11.1108H26.2585L18.0256 23H15.2216V5.54545ZM32.1584 12.4403V9.90909H43.6129V12.4403H39.3771V23H36.3942V12.4403H32.1584ZM49.2976 23.2642C48.468 23.2642 47.7209 23.1165 47.0561 22.821C46.397 22.5199 45.8743 22.0767 45.4879 21.4915C45.1072 20.9062 44.9169 20.1847 44.9169 19.3267C44.9169 18.5881 45.0533 17.9773 45.326 17.4943C45.5987 17.0114 45.9709 16.625 46.4425 16.3352C46.9141 16.0455 47.4453 15.8267 48.0362 15.679C48.6328 15.5256 49.2493 15.4148 49.8857 15.3466C50.6527 15.267 51.2749 15.196 51.7521 15.1335C52.2294 15.0653 52.576 14.9631 52.7919 14.8267C53.0135 14.6847 53.1243 14.4659 53.1243 14.1705V14.1193C53.1243 13.4773 52.9339 12.9801 52.5533 12.6278C52.1726 12.2756 51.6243 12.0994 50.9084 12.0994C50.1527 12.0994 49.5533 12.2642 49.1101 12.5938C48.6726 12.9233 48.3771 13.3125 48.2237 13.7614L45.343 13.3523C45.5703 12.5568 45.9453 11.892 46.468 11.358C46.9908 10.8182 47.63 10.4148 48.3857 10.1477C49.1413 9.875 49.9766 9.73864 50.8913 9.73864C51.522 9.73864 52.1499 9.8125 52.7749 9.96023C53.3999 10.108 53.9709 10.3523 54.4879 10.6932C55.005 11.0284 55.4197 11.4858 55.7322 12.0653C56.0504 12.6449 56.2095 13.3693 56.2095 14.2386V23H53.2436V21.2017H53.1413C52.9538 21.5653 52.6896 21.9062 52.3487 22.2244C52.0135 22.5369 51.5902 22.7898 51.0788 22.983C50.5732 23.1705 49.9794 23.2642 49.2976 23.2642ZM50.0987 20.9972C50.718 20.9972 51.255 20.875 51.7095 20.6307C52.1641 20.3807 52.5135 20.0511 52.7578 19.642C53.0078 19.233 53.1328 18.7869 53.1328 18.304V16.7614C53.0362 16.8409 52.8714 16.9148 52.6385 16.983C52.4112 17.0511 52.1555 17.1108 51.8714 17.1619C51.5874 17.2131 51.3061 17.2585 51.0277 17.2983C50.7493 17.3381 50.5078 17.3722 50.3033 17.4006C49.843 17.4631 49.4311 17.5653 49.0675 17.7074C48.7038 17.8494 48.4169 18.0483 48.2067 18.304C47.9964 18.554 47.8913 18.8778 47.8913 19.2756C47.8913 19.8438 48.0987 20.2727 48.5135 20.5625C48.9283 20.8523 49.4567 20.9972 50.0987 20.9972ZM58.4084 23L58.3913 20.4602H58.843C59.1839 20.4602 59.4709 20.3835 59.7038 20.2301C59.9368 20.0767 60.13 19.821 60.2834 19.4631C60.4368 19.0994 60.5561 18.6108 60.6413 17.9972C60.7266 17.3835 60.7862 16.6193 60.8203 15.7045L61.0504 9.90909H70.5959V23H67.6129V12.4403H63.8544L63.6499 16.6591C63.5987 17.75 63.4766 18.696 63.2834 19.4972C63.0959 20.2926 62.8288 20.9489 62.4822 21.4659C62.1413 21.983 61.7124 22.3693 61.1953 22.625C60.6783 22.875 60.0675 23 59.3629 23H58.4084ZM76.6768 18.8239L81.9183 9.90909H85.0888V23H82.1058V14.0767L76.8814 23H73.7024V9.90909H76.6768V18.8239ZM95.9957 23V12.4148H93.2003C92.4901 12.4148 91.9446 12.5795 91.5639 12.9091C91.1832 13.2386 90.9957 13.6477 91.0014 14.1364C90.9957 14.625 91.1747 15.0284 91.5384 15.3466C91.902 15.6648 92.4219 15.8239 93.098 15.8239H96.9673V18.0739H93.098C92.0526 18.0739 91.1491 17.9091 90.3878 17.5795C89.6264 17.25 89.0412 16.7841 88.6321 16.1818C88.223 15.5795 88.0185 14.875 88.0185 14.0682C88.0185 13.2273 88.2259 12.4972 88.6406 11.8778C89.0611 11.2528 89.6577 10.7699 90.4304 10.429C91.2088 10.0824 92.1321 9.90909 93.2003 9.90909H98.8849V23H95.9957ZM87.5412 23L91.1974 16.2841H94.2401L90.5753 23H87.5412Z" fill="white"/>
<path d="M1.05682 50V41.2727H4.72159C5.75568 41.2727 6.57197 41.4792 7.17045 41.892C7.77273 42.3049 8.07386 42.8807 8.07386 43.6193C8.07386 44.108 7.90341 44.5076 7.5625 44.8182C7.22538 45.125 6.76515 45.3314 6.18182 45.4375C6.64015 45.4754 7.04167 45.5909 7.38636 45.7841C7.73485 45.9773 8.00758 46.2311 8.20455 46.5455C8.40152 46.8598 8.5 47.2216 8.5 47.6307C8.5 48.1117 8.37311 48.5303 8.11932 48.8864C7.86932 49.2386 7.50379 49.5133 7.02273 49.7102C6.54545 49.9034 5.96591 50 5.28409 50H1.05682ZM2.98295 48.3807H5.28409C5.66288 48.3807 5.96023 48.2917 6.17614 48.1136C6.39205 47.9318 6.5 47.6856 6.5 47.375C6.5 47.0152 6.39205 46.733 6.17614 46.5284C5.96023 46.3201 5.66288 46.2159 5.28409 46.2159H2.98295V48.3807ZM2.98295 44.8864H4.76136C5.04167 44.8864 5.2822 44.8466 5.48295 44.767C5.68371 44.6837 5.83712 44.5682 5.94318 44.4205C6.04924 44.2689 6.10227 44.089 6.10227 43.8807C6.10227 43.5814 5.97917 43.3466 5.73295 43.1761C5.49053 43.0057 5.15341 42.9205 4.72159 42.9205H2.98295V44.8864ZM12.1804 47.2159L15.6747 41.2727H17.7884V50H15.7997V44.0511L12.3168 50H10.1974V41.2727H12.1804V47.2159ZM19.4176 47.608H21.4574C21.4763 47.9337 21.6222 48.1856 21.8949 48.3636C22.1676 48.5417 22.5218 48.6307 22.9574 48.6307C23.4006 48.6307 23.7737 48.5341 24.0767 48.3409C24.3835 48.1439 24.5369 47.8466 24.5369 47.4489C24.5369 47.214 24.4782 47.0076 24.3608 46.8295C24.2434 46.6477 24.0786 46.5076 23.8665 46.4091C23.6544 46.3106 23.4044 46.2614 23.1165 46.2614H21.7812V44.8011H23.1165C23.5445 44.8011 23.8684 44.7027 24.0881 44.5057C24.3116 44.3087 24.4233 44.0606 24.4233 43.7614C24.4233 43.4394 24.3059 43.178 24.071 42.9773C23.84 42.7765 23.5199 42.6761 23.1108 42.6761C22.7017 42.6761 22.3608 42.7689 22.0881 42.9545C21.8191 43.1402 21.679 43.3788 21.6676 43.6705H19.6392C19.6468 43.1629 19.7983 42.7216 20.0938 42.3466C20.393 41.9716 20.7945 41.6799 21.2983 41.4716C21.8059 41.2633 22.3778 41.1591 23.0142 41.1591C23.696 41.1591 24.285 41.2614 24.7812 41.4659C25.2775 41.6705 25.66 41.9564 25.929 42.3239C26.1979 42.6875 26.3324 43.1155 26.3324 43.608C26.3324 44.0814 26.1847 44.4735 25.8892 44.7841C25.5938 45.0909 25.196 45.3106 24.696 45.4432V45.5341C25.0407 45.553 25.3513 45.6515 25.6278 45.8295C25.9044 46.0038 26.1241 46.2405 26.2869 46.5398C26.4498 46.839 26.5312 47.1856 26.5312 47.5795C26.5312 48.1136 26.3778 48.5758 26.071 48.9659C25.7642 49.3523 25.3419 49.6496 24.804 49.858C24.2699 50.0663 23.6581 50.1705 22.9688 50.1705C22.2983 50.1705 21.6979 50.0701 21.1676 49.8693C20.6411 49.6648 20.2225 49.3712 19.9119 48.9886C19.6013 48.6061 19.4366 48.1458 19.4176 47.608ZM30.6619 50.1761C30.1089 50.1761 29.6108 50.0777 29.1676 49.8807C28.7282 49.6799 28.3797 49.3845 28.1222 48.9943C27.8684 48.6042 27.7415 48.1231 27.7415 47.5511C27.7415 47.0587 27.8324 46.6515 28.0142 46.3295C28.196 46.0076 28.4441 45.75 28.7585 45.5568C29.0729 45.3636 29.4271 45.2178 29.821 45.1193C30.2188 45.017 30.6297 44.9432 31.054 44.8977C31.5653 44.8447 31.9801 44.7973 32.2983 44.7557C32.6165 44.7102 32.8475 44.642 32.9915 44.5511C33.1392 44.4564 33.2131 44.3106 33.2131 44.1136V44.0795C33.2131 43.6515 33.0862 43.3201 32.8324 43.0852C32.5786 42.8504 32.2131 42.733 31.7358 42.733C31.232 42.733 30.8324 42.8428 30.5369 43.0625C30.2453 43.2822 30.0483 43.5417 29.946 43.8409L28.0256 43.5682C28.1771 43.0379 28.4271 42.5947 28.7756 42.2386C29.1241 41.8788 29.5502 41.6098 30.054 41.4318C30.5578 41.25 31.1146 41.1591 31.7244 41.1591C32.1449 41.1591 32.5634 41.2083 32.9801 41.3068C33.3968 41.4053 33.7775 41.5682 34.1222 41.7955C34.4669 42.0189 34.7434 42.3239 34.9517 42.7102C35.1638 43.0966 35.2699 43.5795 35.2699 44.1591V50H33.2926V48.8011H33.2244C33.0994 49.0436 32.9233 49.2708 32.696 49.483C32.4725 49.6913 32.1903 49.8598 31.8494 49.9886C31.5123 50.1136 31.1165 50.1761 30.6619 50.1761ZM31.196 48.6648C31.6089 48.6648 31.9669 48.5833 32.2699 48.4205C32.5729 48.2538 32.8059 48.0341 32.9688 47.7614C33.1354 47.4886 33.2188 47.1913 33.2188 46.8693V45.8409C33.1544 45.8939 33.0445 45.9432 32.8892 45.9886C32.7377 46.0341 32.5672 46.0739 32.3778 46.108C32.1884 46.142 32.0009 46.1723 31.8153 46.1989C31.6297 46.2254 31.4688 46.2481 31.3324 46.267C31.0256 46.3087 30.7509 46.3769 30.5085 46.4716C30.2661 46.5663 30.0748 46.6989 29.9347 46.8693C29.7945 47.036 29.7244 47.2519 29.7244 47.517C29.7244 47.8958 29.8627 48.1818 30.1392 48.375C30.4157 48.5682 30.768 48.6648 31.196 48.6648ZM47.3011 44.7841V46.4716H42.6534V44.7841H47.3011ZM43.2898 41.2727V50H41.3068V41.2727H43.2898ZM48.6477 41.2727V50H46.6705V41.2727H48.6477ZM53.2401 50.1761C52.687 50.1761 52.1889 50.0777 51.7457 49.8807C51.3063 49.6799 50.9579 49.3845 50.7003 48.9943C50.4465 48.6042 50.3196 48.1231 50.3196 47.5511C50.3196 47.0587 50.4105 46.6515 50.5923 46.3295C50.7741 46.0076 51.0223 45.75 51.3366 45.5568C51.651 45.3636 52.0052 45.2178 52.3991 45.1193C52.7969 45.017 53.2079 44.9432 53.6321 44.8977C54.1435 44.8447 54.5582 44.7973 54.8764 44.7557C55.1946 44.7102 55.4257 44.642 55.5696 44.5511C55.7173 44.4564 55.7912 44.3106 55.7912 44.1136V44.0795C55.7912 43.6515 55.6643 43.3201 55.4105 43.0852C55.1567 42.8504 54.7912 42.733 54.3139 42.733C53.8101 42.733 53.4105 42.8428 53.1151 43.0625C52.8234 43.2822 52.6264 43.5417 52.5241 43.8409L50.6037 43.5682C50.7552 43.0379 51.0052 42.5947 51.3537 42.2386C51.7022 41.8788 52.1283 41.6098 52.6321 41.4318C53.1359 41.25 53.6927 41.1591 54.3026 41.1591C54.723 41.1591 55.1416 41.2083 55.5582 41.3068C55.9749 41.4053 56.3556 41.5682 56.7003 41.7955C57.045 42.0189 57.3215 42.3239 57.5298 42.7102C57.742 43.0966 57.848 43.5795 57.848 44.1591V50H55.8707V48.8011H55.8026C55.6776 49.0436 55.5014 49.2708 55.2741 49.483C55.0507 49.6913 54.7685 49.8598 54.4276 49.9886C54.0904 50.1136 53.6946 50.1761 53.2401 50.1761ZM53.7741 48.6648C54.187 48.6648 54.545 48.5833 54.848 48.4205C55.151 48.2538 55.384 48.0341 55.5469 47.7614C55.7135 47.4886 55.7969 47.1913 55.7969 46.8693V45.8409C55.7325 45.8939 55.6226 45.9432 55.4673 45.9886C55.3158 46.0341 55.1454 46.0739 54.956 46.108C54.7666 46.142 54.5791 46.1723 54.3935 46.1989C54.2079 46.2254 54.0469 46.2481 53.9105 46.267C53.6037 46.3087 53.3291 46.3769 53.0866 46.4716C52.8442 46.5663 52.6529 46.6989 52.5128 46.8693C52.3726 47.036 52.3026 47.2519 52.3026 47.517C52.3026 47.8958 52.4408 48.1818 52.7173 48.375C52.9938 48.5682 53.3461 48.6648 53.7741 48.6648ZM63.652 47.8409V46.1648L68.5895 38.3636H69.9872V40.75H69.1349L65.8111 46.017V46.108H72.7031V47.8409H63.652ZM69.2031 50V47.3295L69.2259 46.5795V38.3636H71.2145V50H69.2031ZM84.2827 41.2727V42.9602H80.5213V50H78.5099V41.2727H84.2827ZM89.3793 50.1705C88.527 50.1705 87.7884 49.983 87.1634 49.608C86.5384 49.233 86.0535 48.7083 85.7088 48.0341C85.3679 47.3598 85.1974 46.572 85.1974 45.6705C85.1974 44.7689 85.3679 43.9792 85.7088 43.3011C86.0535 42.6231 86.5384 42.0966 87.1634 41.7216C87.7884 41.3466 88.527 41.1591 89.3793 41.1591C90.2315 41.1591 90.9702 41.3466 91.5952 41.7216C92.2202 42.0966 92.7031 42.6231 93.044 43.3011C93.3887 43.9792 93.5611 44.7689 93.5611 45.6705C93.5611 46.572 93.3887 47.3598 93.044 48.0341C92.7031 48.7083 92.2202 49.233 91.5952 49.608C90.9702 49.983 90.2315 50.1705 89.3793 50.1705ZM89.3906 48.5227C89.8527 48.5227 90.2391 48.3958 90.5497 48.142C90.8603 47.8845 91.0914 47.5398 91.2429 47.108C91.3982 46.6761 91.4759 46.1951 91.4759 45.6648C91.4759 45.1307 91.3982 44.6477 91.2429 44.2159C91.0914 43.7803 90.8603 43.4337 90.5497 43.1761C90.2391 42.9186 89.8527 42.7898 89.3906 42.7898C88.9171 42.7898 88.5232 42.9186 88.2088 43.1761C87.8982 43.4337 87.6652 43.7803 87.5099 44.2159C87.3584 44.6477 87.2827 45.1307 87.2827 45.6648C87.2827 46.1951 87.3584 46.6761 87.5099 47.108C87.6652 47.5398 87.8982 47.8845 88.2088 48.142C88.5232 48.3958 88.9171 48.5227 89.3906 48.5227ZM94.5341 52.5341V48.3068H95.2273C95.4129 48.1629 95.5682 47.9678 95.6932 47.7216C95.8182 47.4716 95.9205 47.178 96 46.8409C96.0833 46.5 96.1515 46.1193 96.2045 45.6989C96.2576 45.2746 96.3049 44.8182 96.3466 44.3295L96.5966 41.2727H102.903V48.3068H104.256V52.5341H102.267V50H96.5568V52.5341H94.5341ZM97.3409 48.3068H100.938V42.9318H98.3807L98.2443 44.3295C98.1686 45.2538 98.0682 46.0455 97.9432 46.7045C97.8182 47.3636 97.6174 47.8977 97.3409 48.3068ZM108.303 50.1761C107.75 50.1761 107.251 50.0777 106.808 49.8807C106.369 49.6799 106.02 49.3845 105.763 48.9943C105.509 48.6042 105.382 48.1231 105.382 47.5511C105.382 47.0587 105.473 46.6515 105.655 46.3295C105.837 46.0076 106.085 45.75 106.399 45.5568C106.714 45.3636 107.068 45.2178 107.462 45.1193C107.859 45.017 108.27 44.9432 108.695 44.8977C109.206 44.8447 109.621 44.7973 109.939 44.7557C110.257 44.7102 110.488 44.642 110.632 44.5511C110.78 44.4564 110.854 44.3106 110.854 44.1136V44.0795C110.854 43.6515 110.727 43.3201 110.473 43.0852C110.219 42.8504 109.854 42.733 109.376 42.733C108.873 42.733 108.473 42.8428 108.178 43.0625C107.886 43.2822 107.689 43.5417 107.587 43.8409L105.666 43.5682C105.818 43.0379 106.068 42.5947 106.416 42.2386C106.765 41.8788 107.191 41.6098 107.695 41.4318C108.198 41.25 108.755 41.1591 109.365 41.1591C109.786 41.1591 110.204 41.2083 110.621 41.3068C111.037 41.4053 111.418 41.5682 111.763 41.7955C112.107 42.0189 112.384 42.3239 112.592 42.7102C112.804 43.0966 112.911 43.5795 112.911 44.1591V50H110.933V48.8011H110.865C110.74 49.0436 110.564 49.2708 110.337 49.483C110.113 49.6913 109.831 49.8598 109.49 49.9886C109.153 50.1136 108.757 50.1761 108.303 50.1761ZM108.837 48.6648C109.25 48.6648 109.607 48.5833 109.911 48.4205C110.214 48.2538 110.446 48.0341 110.609 47.7614C110.776 47.4886 110.859 47.1913 110.859 46.8693V45.8409C110.795 45.8939 110.685 45.9432 110.53 45.9886C110.378 46.0341 110.208 46.0739 110.018 46.108C109.829 46.142 109.642 46.1723 109.456 46.1989C109.27 46.2254 109.109 46.2481 108.973 46.267C108.666 46.3087 108.392 46.3769 108.149 46.4716C107.907 46.5663 107.715 46.6989 107.575 46.8693C107.435 47.036 107.365 47.2519 107.365 47.517C107.365 47.8958 107.503 48.1818 107.78 48.375C108.056 48.5682 108.409 48.6648 108.837 48.6648Z" fill="white"/>
</svg>
