<svg width="114" height="54" viewBox="0 0 114 54" fill="none" xmlns="http://www.w3.org/2000/svg">
<path d="M33.179 23L27.4347 15.3722H25.8835V23H22.7216V5.54545H25.8835V12.7216H26.6761L32.8807 5.54545H36.7756L29.8807 13.5057L37.0739 23H33.179ZM42.0597 18.8239L47.3011 9.90909H50.4716V23H47.4886V14.0767L42.2642 23H39.0852V9.90909H42.0597V18.8239ZM52.174 12.4403V9.90909H63.6286V12.4403H59.3928V23H56.4098V12.4403H52.174ZM69.3132 23.2642C68.4837 23.2642 67.7365 23.1165 67.0717 22.821C66.4126 22.5199 65.8899 22.0767 65.5036 21.4915C65.1229 20.9062 64.9325 20.1847 64.9325 19.3267C64.9325 18.5881 65.0689 17.9773 65.3416 17.4943C65.6143 17.0114 65.9865 16.625 66.4581 16.3352C66.9297 16.0455 67.4609 15.8267 68.0518 15.679C68.6484 15.5256 69.2649 15.4148 69.9013 15.3466C70.6683 15.267 71.2905 15.196 71.7678 15.1335C72.245 15.0653 72.5916 14.9631 72.8075 14.8267C73.0291 14.6847 73.1399 14.4659 73.1399 14.1705V14.1193C73.1399 13.4773 72.9496 12.9801 72.5689 12.6278C72.1882 12.2756 71.6399 12.0994 70.924 12.0994C70.1683 12.0994 69.5689 12.2642 69.1257 12.5938C68.6882 12.9233 68.3928 13.3125 68.2393 13.7614L65.3587 13.3523C65.5859 12.5568 65.9609 11.892 66.4837 11.358C67.0064 10.8182 67.6456 10.4148 68.4013 10.1477C69.157 9.875 69.9922 9.73864 70.907 9.73864C71.5376 9.73864 72.1655 9.8125 72.7905 9.96023C73.4155 10.108 73.9865 10.3523 74.5036 10.6932C75.0206 11.0284 75.4354 11.4858 75.7479 12.0653C76.0661 12.6449 76.2251 13.3693 76.2251 14.2386V23H73.2592V21.2017H73.157C72.9695 21.5653 72.7053 21.9062 72.3643 22.2244C72.0291 22.5369 71.6058 22.7898 71.0945 22.983C70.5888 23.1705 69.995 23.2642 69.3132 23.2642ZM70.1143 20.9972C70.7337 20.9972 71.2706 20.875 71.7251 20.6307C72.1797 20.3807 72.5291 20.0511 72.7734 19.642C73.0234 19.233 73.1484 18.7869 73.1484 18.304V16.7614C73.0518 16.8409 72.8871 16.9148 72.6541 16.983C72.4268 17.0511 72.1712 17.1108 71.8871 17.1619C71.603 17.2131 71.3217 17.2585 71.0433 17.2983C70.7649 17.3381 70.5234 17.3722 70.3189 17.4006C69.8587 17.4631 69.4467 17.5653 69.0831 17.7074C68.7195 17.8494 68.4325 18.0483 68.2223 18.304C68.0121 18.554 67.907 18.8778 67.907 19.2756C67.907 19.8438 68.1143 20.2727 68.5291 20.5625C68.9439 20.8523 69.4723 20.9972 70.1143 20.9972ZM82.3018 18.8239L87.5433 9.90909H90.7138V23H87.7308V14.0767L82.5064 23H79.3274V9.90909H82.3018V18.8239ZM86.6996 5.40909H89.0092C89.0092 6.40341 88.6484 7.21023 87.9268 7.82954C87.2109 8.44318 86.2393 8.75 85.0121 8.75C83.7962 8.75 82.8274 8.44318 82.1058 7.82954C81.3899 7.21023 81.0348 6.40341 81.0405 5.40909H83.3331C83.3331 5.81818 83.4581 6.18466 83.7081 6.50852C83.9638 6.8267 84.3984 6.98579 85.0121 6.98579C85.6143 6.98579 86.0433 6.8267 86.299 6.50852C86.5604 6.19034 86.6939 5.82386 86.6996 5.40909Z" fill="white"/>
<path d="M1.05682 50V41.2727H4.72159C5.75568 41.2727 6.57197 41.4792 7.17045 41.892C7.77273 42.3049 8.07386 42.8807 8.07386 43.6193C8.07386 44.108 7.90341 44.5076 7.5625 44.8182C7.22538 45.125 6.76515 45.3314 6.18182 45.4375C6.64015 45.4754 7.04167 45.5909 7.38636 45.7841C7.73485 45.9773 8.00758 46.2311 8.20455 46.5455C8.40152 46.8598 8.5 47.2216 8.5 47.6307C8.5 48.1117 8.37311 48.5303 8.11932 48.8864C7.86932 49.2386 7.50379 49.5133 7.02273 49.7102C6.54545 49.9034 5.96591 50 5.28409 50H1.05682ZM2.98295 48.3807H5.28409C5.66288 48.3807 5.96023 48.2917 6.17614 48.1136C6.39205 47.9318 6.5 47.6856 6.5 47.375C6.5 47.0152 6.39205 46.733 6.17614 46.5284C5.96023 46.3201 5.66288 46.2159 5.28409 46.2159H2.98295V48.3807ZM2.98295 44.8864H4.76136C5.04167 44.8864 5.2822 44.8466 5.48295 44.767C5.68371 44.6837 5.83712 44.5682 5.94318 44.4205C6.04924 44.2689 6.10227 44.089 6.10227 43.8807C6.10227 43.5814 5.97917 43.3466 5.73295 43.1761C5.49053 43.0057 5.15341 42.9205 4.72159 42.9205H2.98295V44.8864ZM12.1804 47.2159L15.6747 41.2727H17.7884V50H15.7997V44.0511L12.3168 50H10.1974V41.2727H12.1804V47.2159ZM19.4176 47.608H21.4574C21.4763 47.9337 21.6222 48.1856 21.8949 48.3636C22.1676 48.5417 22.5218 48.6307 22.9574 48.6307C23.4006 48.6307 23.7737 48.5341 24.0767 48.3409C24.3835 48.1439 24.5369 47.8466 24.5369 47.4489C24.5369 47.214 24.4782 47.0076 24.3608 46.8295C24.2434 46.6477 24.0786 46.5076 23.8665 46.4091C23.6544 46.3106 23.4044 46.2614 23.1165 46.2614H21.7812V44.8011H23.1165C23.5445 44.8011 23.8684 44.7027 24.0881 44.5057C24.3116 44.3087 24.4233 44.0606 24.4233 43.7614C24.4233 43.4394 24.3059 43.178 24.071 42.9773C23.84 42.7765 23.5199 42.6761 23.1108 42.6761C22.7017 42.6761 22.3608 42.7689 22.0881 42.9545C21.8191 43.1402 21.679 43.3788 21.6676 43.6705H19.6392C19.6468 43.1629 19.7983 42.7216 20.0938 42.3466C20.393 41.9716 20.7945 41.6799 21.2983 41.4716C21.8059 41.2633 22.3778 41.1591 23.0142 41.1591C23.696 41.1591 24.285 41.2614 24.7812 41.4659C25.2775 41.6705 25.66 41.9564 25.929 42.3239C26.1979 42.6875 26.3324 43.1155 26.3324 43.608C26.3324 44.0814 26.1847 44.4735 25.8892 44.7841C25.5938 45.0909 25.196 45.3106 24.696 45.4432V45.5341C25.0407 45.553 25.3513 45.6515 25.6278 45.8295C25.9044 46.0038 26.1241 46.2405 26.2869 46.5398C26.4498 46.839 26.5312 47.1856 26.5312 47.5795C26.5312 48.1136 26.3778 48.5758 26.071 48.9659C25.7642 49.3523 25.3419 49.6496 24.804 49.858C24.2699 50.0663 23.6581 50.1705 22.9688 50.1705C22.2983 50.1705 21.6979 50.0701 21.1676 49.8693C20.6411 49.6648 20.2225 49.3712 19.9119 48.9886C19.6013 48.6061 19.4366 48.1458 19.4176 47.608ZM30.6619 50.1761C30.1089 50.1761 29.6108 50.0777 29.1676 49.8807C28.7282 49.6799 28.3797 49.3845 28.1222 48.9943C27.8684 48.6042 27.7415 48.1231 27.7415 47.5511C27.7415 47.0587 27.8324 46.6515 28.0142 46.3295C28.196 46.0076 28.4441 45.75 28.7585 45.5568C29.0729 45.3636 29.4271 45.2178 29.821 45.1193C30.2188 45.017 30.6297 44.9432 31.054 44.8977C31.5653 44.8447 31.9801 44.7973 32.2983 44.7557C32.6165 44.7102 32.8475 44.642 32.9915 44.5511C33.1392 44.4564 33.2131 44.3106 33.2131 44.1136V44.0795C33.2131 43.6515 33.0862 43.3201 32.8324 43.0852C32.5786 42.8504 32.2131 42.733 31.7358 42.733C31.232 42.733 30.8324 42.8428 30.5369 43.0625C30.2453 43.2822 30.0483 43.5417 29.946 43.8409L28.0256 43.5682C28.1771 43.0379 28.4271 42.5947 28.7756 42.2386C29.1241 41.8788 29.5502 41.6098 30.054 41.4318C30.5578 41.25 31.1146 41.1591 31.7244 41.1591C32.1449 41.1591 32.5634 41.2083 32.9801 41.3068C33.3968 41.4053 33.7775 41.5682 34.1222 41.7955C34.4669 42.0189 34.7434 42.3239 34.9517 42.7102C35.1638 43.0966 35.2699 43.5795 35.2699 44.1591V50H33.2926V48.8011H33.2244C33.0994 49.0436 32.9233 49.2708 32.696 49.483C32.4725 49.6913 32.1903 49.8598 31.8494 49.9886C31.5123 50.1136 31.1165 50.1761 30.6619 50.1761ZM31.196 48.6648C31.6089 48.6648 31.9669 48.5833 32.2699 48.4205C32.5729 48.2538 32.8059 48.0341 32.9688 47.7614C33.1354 47.4886 33.2188 47.1913 33.2188 46.8693V45.8409C33.1544 45.8939 33.0445 45.9432 32.8892 45.9886C32.7377 46.0341 32.5672 46.0739 32.3778 46.108C32.1884 46.142 32.0009 46.1723 31.8153 46.1989C31.6297 46.2254 31.4688 46.2481 31.3324 46.267C31.0256 46.3087 30.7509 46.3769 30.5085 46.4716C30.2661 46.5663 30.0748 46.6989 29.9347 46.8693C29.7945 47.036 29.7244 47.2519 29.7244 47.517C29.7244 47.8958 29.8627 48.1818 30.1392 48.375C30.4157 48.5682 30.768 48.6648 31.196 48.6648ZM47.3011 44.7841V46.4716H42.6534V44.7841H47.3011ZM43.2898 41.2727V50H41.3068V41.2727H43.2898ZM48.6477 41.2727V50H46.6705V41.2727H48.6477ZM53.2401 50.1761C52.687 50.1761 52.1889 50.0777 51.7457 49.8807C51.3063 49.6799 50.9579 49.3845 50.7003 48.9943C50.4465 48.6042 50.3196 48.1231 50.3196 47.5511C50.3196 47.0587 50.4105 46.6515 50.5923 46.3295C50.7741 46.0076 51.0223 45.75 51.3366 45.5568C51.651 45.3636 52.0052 45.2178 52.3991 45.1193C52.7969 45.017 53.2079 44.9432 53.6321 44.8977C54.1435 44.8447 54.5582 44.7973 54.8764 44.7557C55.1946 44.7102 55.4257 44.642 55.5696 44.5511C55.7173 44.4564 55.7912 44.3106 55.7912 44.1136V44.0795C55.7912 43.6515 55.6643 43.3201 55.4105 43.0852C55.1567 42.8504 54.7912 42.733 54.3139 42.733C53.8101 42.733 53.4105 42.8428 53.1151 43.0625C52.8234 43.2822 52.6264 43.5417 52.5241 43.8409L50.6037 43.5682C50.7552 43.0379 51.0052 42.5947 51.3537 42.2386C51.7022 41.8788 52.1283 41.6098 52.6321 41.4318C53.1359 41.25 53.6927 41.1591 54.3026 41.1591C54.723 41.1591 55.1416 41.2083 55.5582 41.3068C55.9749 41.4053 56.3556 41.5682 56.7003 41.7955C57.045 42.0189 57.3215 42.3239 57.5298 42.7102C57.742 43.0966 57.848 43.5795 57.848 44.1591V50H55.8707V48.8011H55.8026C55.6776 49.0436 55.5014 49.2708 55.2741 49.483C55.0507 49.6913 54.7685 49.8598 54.4276 49.9886C54.0904 50.1136 53.6946 50.1761 53.2401 50.1761ZM53.7741 48.6648C54.187 48.6648 54.545 48.5833 54.848 48.4205C55.151 48.2538 55.384 48.0341 55.5469 47.7614C55.7135 47.4886 55.7969 47.1913 55.7969 46.8693V45.8409C55.7325 45.8939 55.6226 45.9432 55.4673 45.9886C55.3158 46.0341 55.1454 46.0739 54.956 46.108C54.7666 46.142 54.5791 46.1723 54.3935 46.1989C54.2079 46.2254 54.0469 46.2481 53.9105 46.267C53.6037 46.3087 53.3291 46.3769 53.0866 46.4716C52.8442 46.5663 52.6529 46.6989 52.5128 46.8693C52.3726 47.036 52.3026 47.2519 52.3026 47.517C52.3026 47.8958 52.4408 48.1818 52.7173 48.375C52.9938 48.5682 53.3461 48.6648 53.7741 48.6648ZM63.652 47.8409V46.1648L68.5895 38.3636H69.9872V40.75H69.1349L65.8111 46.017V46.108H72.7031V47.8409H63.652ZM69.2031 50V47.3295L69.2259 46.5795V38.3636H71.2145V50H69.2031ZM84.2827 41.2727V42.9602H80.5213V50H78.5099V41.2727H84.2827ZM89.3793 50.1705C88.527 50.1705 87.7884 49.983 87.1634 49.608C86.5384 49.233 86.0535 48.7083 85.7088 48.0341C85.3679 47.3598 85.1974 46.572 85.1974 45.6705C85.1974 44.7689 85.3679 43.9792 85.7088 43.3011C86.0535 42.6231 86.5384 42.0966 87.1634 41.7216C87.7884 41.3466 88.527 41.1591 89.3793 41.1591C90.2315 41.1591 90.9702 41.3466 91.5952 41.7216C92.2202 42.0966 92.7031 42.6231 93.044 43.3011C93.3887 43.9792 93.5611 44.7689 93.5611 45.6705C93.5611 46.572 93.3887 47.3598 93.044 48.0341C92.7031 48.7083 92.2202 49.233 91.5952 49.608C90.9702 49.983 90.2315 50.1705 89.3793 50.1705ZM89.3906 48.5227C89.8527 48.5227 90.2391 48.3958 90.5497 48.142C90.8603 47.8845 91.0914 47.5398 91.2429 47.108C91.3982 46.6761 91.4759 46.1951 91.4759 45.6648C91.4759 45.1307 91.3982 44.6477 91.2429 44.2159C91.0914 43.7803 90.8603 43.4337 90.5497 43.1761C90.2391 42.9186 89.8527 42.7898 89.3906 42.7898C88.9171 42.7898 88.5232 42.9186 88.2088 43.1761C87.8982 43.4337 87.6652 43.7803 87.5099 44.2159C87.3584 44.6477 87.2827 45.1307 87.2827 45.6648C87.2827 46.1951 87.3584 46.6761 87.5099 47.108C87.6652 47.5398 87.8982 47.8845 88.2088 48.142C88.5232 48.3958 88.9171 48.5227 89.3906 48.5227ZM94.5341 52.5341V48.3068H95.2273C95.4129 48.1629 95.5682 47.9678 95.6932 47.7216C95.8182 47.4716 95.9205 47.178 96 46.8409C96.0833 46.5 96.1515 46.1193 96.2045 45.6989C96.2576 45.2746 96.3049 44.8182 96.3466 44.3295L96.5966 41.2727H102.903V48.3068H104.256V52.5341H102.267V50H96.5568V52.5341H94.5341ZM97.3409 48.3068H100.938V42.9318H98.3807L98.2443 44.3295C98.1686 45.2538 98.0682 46.0455 97.9432 46.7045C97.8182 47.3636 97.6174 47.8977 97.3409 48.3068ZM108.303 50.1761C107.75 50.1761 107.251 50.0777 106.808 49.8807C106.369 49.6799 106.02 49.3845 105.763 48.9943C105.509 48.6042 105.382 48.1231 105.382 47.5511C105.382 47.0587 105.473 46.6515 105.655 46.3295C105.837 46.0076 106.085 45.75 106.399 45.5568C106.714 45.3636 107.068 45.2178 107.462 45.1193C107.859 45.017 108.27 44.9432 108.695 44.8977C109.206 44.8447 109.621 44.7973 109.939 44.7557C110.257 44.7102 110.488 44.642 110.632 44.5511C110.78 44.4564 110.854 44.3106 110.854 44.1136V44.0795C110.854 43.6515 110.727 43.3201 110.473 43.0852C110.219 42.8504 109.854 42.733 109.376 42.733C108.873 42.733 108.473 42.8428 108.178 43.0625C107.886 43.2822 107.689 43.5417 107.587 43.8409L105.666 43.5682C105.818 43.0379 106.068 42.5947 106.416 42.2386C106.765 41.8788 107.191 41.6098 107.695 41.4318C108.198 41.25 108.755 41.1591 109.365 41.1591C109.786 41.1591 110.204 41.2083 110.621 41.3068C111.037 41.4053 111.418 41.5682 111.763 41.7955C112.107 42.0189 112.384 42.3239 112.592 42.7102C112.804 43.0966 112.911 43.5795 112.911 44.1591V50H110.933V48.8011H110.865C110.74 49.0436 110.564 49.2708 110.337 49.483C110.113 49.6913 109.831 49.8598 109.49 49.9886C109.153 50.1136 108.757 50.1761 108.303 50.1761ZM108.837 48.6648C109.25 48.6648 109.607 48.5833 109.911 48.4205C110.214 48.2538 110.446 48.0341 110.609 47.7614C110.776 47.4886 110.859 47.1913 110.859 46.8693V45.8409C110.795 45.8939 110.685 45.9432 110.53 45.9886C110.378 46.0341 110.208 46.0739 110.018 46.108C109.829 46.142 109.642 46.1723 109.456 46.1989C109.27 46.2254 109.109 46.2481 108.973 46.267C108.666 46.3087 108.392 46.3769 108.149 46.4716C107.907 46.5663 107.715 46.6989 107.575 46.8693C107.435 47.036 107.365 47.2519 107.365 47.517C107.365 47.8958 107.503 48.1818 107.78 48.375C108.056 48.5682 108.409 48.6648 108.837 48.6648Z" fill="white"/>
</svg>
