<svg width="102" height="54" viewBox="0 0 102 54" fill="none" xmlns="http://www.w3.org/2000/svg">
<path d="M37.6619 11.4347H34.4744C34.3835 10.9119 34.2159 10.4489 33.9716 10.0455C33.7273 9.63636 33.4233 9.28977 33.0597 9.00568C32.696 8.72159 32.2813 8.50852 31.8153 8.36648C31.3551 8.21875 30.858 8.14489 30.3239 8.14489C29.375 8.14489 28.5341 8.38352 27.8011 8.86079C27.0682 9.33239 26.4943 10.0256 26.0795 10.9403C25.6648 11.8494 25.4574 12.9602 25.4574 14.2727C25.4574 15.608 25.6648 16.733 26.0795 17.6477C26.5 18.5568 27.0739 19.2443 27.8011 19.7102C28.5341 20.1705 29.3722 20.4006 30.3153 20.4006C30.8381 20.4006 31.3267 20.3324 31.7812 20.196C32.2415 20.054 32.6534 19.8466 33.017 19.5739C33.3864 19.3011 33.696 18.9659 33.946 18.5682C34.2017 18.1705 34.3778 17.7159 34.4744 17.2045L37.6619 17.2216C37.5426 18.0511 37.2841 18.8295 36.8864 19.5568C36.4943 20.2841 35.9801 20.9261 35.3438 21.483C34.7074 22.0341 33.9631 22.4659 33.1108 22.7784C32.2585 23.0852 31.3125 23.2386 30.2727 23.2386C28.7386 23.2386 27.3693 22.8835 26.1648 22.1733C24.9602 21.4631 24.0114 20.4375 23.3182 19.0966C22.625 17.7557 22.2784 16.1477 22.2784 14.2727C22.2784 12.392 22.6278 10.7841 23.3267 9.44886C24.0256 8.10795 24.9773 7.08239 26.1818 6.37216C27.3864 5.66193 28.75 5.30682 30.2727 5.30682C31.2443 5.30682 32.1477 5.44318 32.983 5.71591C33.8182 5.98864 34.5625 6.3892 35.2159 6.91761C35.8693 7.44034 36.4063 8.08239 36.8267 8.84375C37.2528 9.59943 37.5313 10.4631 37.6619 11.4347ZM41.0178 5.54545H44.1286V20.375H49.5149V5.54545H52.6087V20.375H57.9524V5.54545H61.0462V23H41.0178V5.54545ZM67.1974 23H63.8224L69.9673 5.54545H73.8707L80.0241 23H76.6491L71.9872 9.125H71.8509L67.1974 23ZM67.3082 16.1562H76.5128V18.696H67.3082V16.1562Z" fill="white"/>
<path d="M1.05682 50V41.2727H4.72159C5.75568 41.2727 6.57197 41.4792 7.17045 41.892C7.77273 42.3049 8.07386 42.8807 8.07386 43.6193C8.07386 44.108 7.90341 44.5076 7.5625 44.8182C7.22538 45.125 6.76515 45.3314 6.18182 45.4375C6.64015 45.4754 7.04167 45.5909 7.38636 45.7841C7.73485 45.9773 8.00758 46.2311 8.20455 46.5455C8.40152 46.8598 8.5 47.2216 8.5 47.6307C8.5 48.1117 8.37311 48.5303 8.11932 48.8864C7.86932 49.2386 7.50379 49.5133 7.02273 49.7102C6.54545 49.9034 5.96591 50 5.28409 50H1.05682ZM2.98295 48.3807H5.28409C5.66288 48.3807 5.96023 48.2917 6.17614 48.1136C6.39205 47.9318 6.5 47.6856 6.5 47.375C6.5 47.0152 6.39205 46.733 6.17614 46.5284C5.96023 46.3201 5.66288 46.2159 5.28409 46.2159H2.98295V48.3807ZM2.98295 44.8864H4.76136C5.04167 44.8864 5.2822 44.8466 5.48295 44.767C5.68371 44.6837 5.83712 44.5682 5.94318 44.4205C6.04924 44.2689 6.10227 44.089 6.10227 43.8807C6.10227 43.5814 5.97917 43.3466 5.73295 43.1761C5.49053 43.0057 5.15341 42.9205 4.72159 42.9205H2.98295V44.8864ZM12.1804 47.2159L15.6747 41.2727H17.7884V50H15.7997V44.0511L12.3168 50H10.1974V41.2727H12.1804V47.2159ZM19.4176 47.608H21.4574C21.4763 47.9337 21.6222 48.1856 21.8949 48.3636C22.1676 48.5417 22.5218 48.6307 22.9574 48.6307C23.4006 48.6307 23.7737 48.5341 24.0767 48.3409C24.3835 48.1439 24.5369 47.8466 24.5369 47.4489C24.5369 47.214 24.4782 47.0076 24.3608 46.8295C24.2434 46.6477 24.0786 46.5076 23.8665 46.4091C23.6544 46.3106 23.4044 46.2614 23.1165 46.2614H21.7812V44.8011H23.1165C23.5445 44.8011 23.8684 44.7027 24.0881 44.5057C24.3116 44.3087 24.4233 44.0606 24.4233 43.7614C24.4233 43.4394 24.3059 43.178 24.071 42.9773C23.84 42.7765 23.5199 42.6761 23.1108 42.6761C22.7017 42.6761 22.3608 42.7689 22.0881 42.9545C21.8191 43.1402 21.679 43.3788 21.6676 43.6705H19.6392C19.6468 43.1629 19.7983 42.7216 20.0938 42.3466C20.393 41.9716 20.7945 41.6799 21.2983 41.4716C21.8059 41.2633 22.3778 41.1591 23.0142 41.1591C23.696 41.1591 24.285 41.2614 24.7812 41.4659C25.2775 41.6705 25.66 41.9564 25.929 42.3239C26.1979 42.6875 26.3324 43.1155 26.3324 43.608C26.3324 44.0814 26.1847 44.4735 25.8892 44.7841C25.5938 45.0909 25.196 45.3106 24.696 45.4432V45.5341C25.0407 45.553 25.3513 45.6515 25.6278 45.8295C25.9044 46.0038 26.1241 46.2405 26.2869 46.5398C26.4498 46.839 26.5312 47.1856 26.5312 47.5795C26.5312 48.1136 26.3778 48.5758 26.071 48.9659C25.7642 49.3523 25.3419 49.6496 24.804 49.858C24.2699 50.0663 23.6581 50.1705 22.9688 50.1705C22.2983 50.1705 21.6979 50.0701 21.1676 49.8693C20.6411 49.6648 20.2225 49.3712 19.9119 48.9886C19.6013 48.6061 19.4366 48.1458 19.4176 47.608ZM30.6619 50.1761C30.1089 50.1761 29.6108 50.0777 29.1676 49.8807C28.7282 49.6799 28.3797 49.3845 28.1222 48.9943C27.8684 48.6042 27.7415 48.1231 27.7415 47.5511C27.7415 47.0587 27.8324 46.6515 28.0142 46.3295C28.196 46.0076 28.4441 45.75 28.7585 45.5568C29.0729 45.3636 29.4271 45.2178 29.821 45.1193C30.2188 45.017 30.6297 44.9432 31.054 44.8977C31.5653 44.8447 31.9801 44.7973 32.2983 44.7557C32.6165 44.7102 32.8475 44.642 32.9915 44.5511C33.1392 44.4564 33.2131 44.3106 33.2131 44.1136V44.0795C33.2131 43.6515 33.0862 43.3201 32.8324 43.0852C32.5786 42.8504 32.2131 42.733 31.7358 42.733C31.232 42.733 30.8324 42.8428 30.5369 43.0625C30.2453 43.2822 30.0483 43.5417 29.946 43.8409L28.0256 43.5682C28.1771 43.0379 28.4271 42.5947 28.7756 42.2386C29.1241 41.8788 29.5502 41.6098 30.054 41.4318C30.5578 41.25 31.1146 41.1591 31.7244 41.1591C32.1449 41.1591 32.5634 41.2083 32.9801 41.3068C33.3968 41.4053 33.7775 41.5682 34.1222 41.7955C34.4669 42.0189 34.7434 42.3239 34.9517 42.7102C35.1638 43.0966 35.2699 43.5795 35.2699 44.1591V50H33.2926V48.8011H33.2244C33.0994 49.0436 32.9233 49.2708 32.696 49.483C32.4725 49.6913 32.1903 49.8598 31.8494 49.9886C31.5123 50.1136 31.1165 50.1761 30.6619 50.1761ZM31.196 48.6648C31.6089 48.6648 31.9669 48.5833 32.2699 48.4205C32.5729 48.2538 32.8059 48.0341 32.9688 47.7614C33.1354 47.4886 33.2188 47.1913 33.2188 46.8693V45.8409C33.1544 45.8939 33.0445 45.9432 32.8892 45.9886C32.7377 46.0341 32.5672 46.0739 32.3778 46.108C32.1884 46.142 32.0009 46.1723 31.8153 46.1989C31.6297 46.2254 31.4688 46.2481 31.3324 46.267C31.0256 46.3087 30.7509 46.3769 30.5085 46.4716C30.2661 46.5663 30.0748 46.6989 29.9347 46.8693C29.7945 47.036 29.7244 47.2519 29.7244 47.517C29.7244 47.8958 29.8627 48.1818 30.1392 48.375C30.4157 48.5682 30.768 48.6648 31.196 48.6648ZM47.3011 44.7841V46.4716H42.6534V44.7841H47.3011ZM43.2898 41.2727V50H41.3068V41.2727H43.2898ZM48.6477 41.2727V50H46.6705V41.2727H48.6477ZM53.2401 50.1761C52.687 50.1761 52.1889 50.0777 51.7457 49.8807C51.3063 49.6799 50.9579 49.3845 50.7003 48.9943C50.4465 48.6042 50.3196 48.1231 50.3196 47.5511C50.3196 47.0587 50.4105 46.6515 50.5923 46.3295C50.7741 46.0076 51.0223 45.75 51.3366 45.5568C51.651 45.3636 52.0052 45.2178 52.3991 45.1193C52.7969 45.017 53.2079 44.9432 53.6321 44.8977C54.1435 44.8447 54.5582 44.7973 54.8764 44.7557C55.1946 44.7102 55.4257 44.642 55.5696 44.5511C55.7173 44.4564 55.7912 44.3106 55.7912 44.1136V44.0795C55.7912 43.6515 55.6643 43.3201 55.4105 43.0852C55.1567 42.8504 54.7912 42.733 54.3139 42.733C53.8101 42.733 53.4105 42.8428 53.1151 43.0625C52.8234 43.2822 52.6264 43.5417 52.5241 43.8409L50.6037 43.5682C50.7552 43.0379 51.0052 42.5947 51.3537 42.2386C51.7022 41.8788 52.1283 41.6098 52.6321 41.4318C53.1359 41.25 53.6927 41.1591 54.3026 41.1591C54.723 41.1591 55.1416 41.2083 55.5582 41.3068C55.9749 41.4053 56.3556 41.5682 56.7003 41.7955C57.045 42.0189 57.3215 42.3239 57.5298 42.7102C57.742 43.0966 57.848 43.5795 57.848 44.1591V50H55.8707V48.8011H55.8026C55.6776 49.0436 55.5014 49.2708 55.2741 49.483C55.0507 49.6913 54.7685 49.8598 54.4276 49.9886C54.0904 50.1136 53.6946 50.1761 53.2401 50.1761ZM53.7741 48.6648C54.187 48.6648 54.545 48.5833 54.848 48.4205C55.151 48.2538 55.384 48.0341 55.5469 47.7614C55.7135 47.4886 55.7969 47.1913 55.7969 46.8693V45.8409C55.7325 45.8939 55.6226 45.9432 55.4673 45.9886C55.3158 46.0341 55.1454 46.0739 54.956 46.108C54.7666 46.142 54.5791 46.1723 54.3935 46.1989C54.2079 46.2254 54.0469 46.2481 53.9105 46.267C53.6037 46.3087 53.3291 46.3769 53.0866 46.4716C52.8442 46.5663 52.6529 46.6989 52.5128 46.8693C52.3726 47.036 52.3026 47.2519 52.3026 47.517C52.3026 47.8958 52.4408 48.1818 52.7173 48.375C52.9938 48.5682 53.3461 48.6648 53.7741 48.6648ZM68.5952 38.3636V50H66.4872V40.4148H66.419L63.6974 42.1534V40.2216L66.5895 38.3636H68.5952ZM81.3139 41.2727V42.9602H77.5526V50H75.5412V41.2727H81.3139ZM86.4105 50.1705C85.5582 50.1705 84.8196 49.983 84.1946 49.608C83.5696 49.233 83.0848 48.7083 82.7401 48.0341C82.3991 47.3598 82.2287 46.572 82.2287 45.6705C82.2287 44.7689 82.3991 43.9792 82.7401 43.3011C83.0848 42.6231 83.5696 42.0966 84.1946 41.7216C84.8196 41.3466 85.5582 41.1591 86.4105 41.1591C87.2628 41.1591 88.0014 41.3466 88.6264 41.7216C89.2514 42.0966 89.7344 42.6231 90.0753 43.3011C90.42 43.9792 90.5923 44.7689 90.5923 45.6705C90.5923 46.572 90.42 47.3598 90.0753 48.0341C89.7344 48.7083 89.2514 49.233 88.6264 49.608C88.0014 49.983 87.2628 50.1705 86.4105 50.1705ZM86.4219 48.5227C86.884 48.5227 87.2704 48.3958 87.581 48.142C87.8916 47.8845 88.1226 47.5398 88.2741 47.108C88.4295 46.6761 88.5071 46.1951 88.5071 45.6648C88.5071 45.1307 88.4295 44.6477 88.2741 44.2159C88.1226 43.7803 87.8916 43.4337 87.581 43.1761C87.2704 42.9186 86.884 42.7898 86.4219 42.7898C85.9484 42.7898 85.5545 42.9186 85.2401 43.1761C84.9295 43.4337 84.6965 43.7803 84.5412 44.2159C84.3897 44.6477 84.3139 45.1307 84.3139 45.6648C84.3139 46.1951 84.3897 46.6761 84.5412 47.108C84.6965 47.5398 84.9295 47.8845 85.2401 48.142C85.5545 48.3958 85.9484 48.5227 86.4219 48.5227ZM91.5653 52.5341V48.3068H92.2585C92.4441 48.1629 92.5994 47.9678 92.7244 47.7216C92.8494 47.4716 92.9517 47.178 93.0312 46.8409C93.1146 46.5 93.1828 46.1193 93.2358 45.6989C93.2888 45.2746 93.3362 44.8182 93.3778 44.3295L93.6278 41.2727H99.9347V48.3068H101.287V52.5341H99.2983V50H93.5881V52.5341H91.5653ZM94.3722 48.3068H97.9688V42.9318H95.4119L95.2756 44.3295C95.1998 45.2538 95.0994 46.0455 94.9744 46.7045C94.8494 47.3636 94.6487 47.8977 94.3722 48.3068Z" fill="white"/>
</svg>
