<svg width="114" height="54" viewBox="0 0 114 54" fill="none" xmlns="http://www.w3.org/2000/svg">
<path d="M8.95455 8.19602V5.54545H22.8807V8.19602H17.4858V23H14.3494V8.19602H8.95455ZM27.4148 23.2642C26.5852 23.2642 25.8381 23.1165 25.1733 22.821C24.5142 22.5199 23.9915 22.0767 23.6051 21.4915C23.2244 20.9062 23.0341 20.1847 23.0341 19.3267C23.0341 18.5881 23.1705 17.9773 23.4432 17.4943C23.7159 17.0114 24.0881 16.625 24.5597 16.3352C25.0313 16.0455 25.5625 15.8267 26.1534 15.679C26.75 15.5256 27.3665 15.4148 28.0028 15.3466C28.7699 15.267 29.392 15.196 29.8693 15.1335C30.3466 15.0653 30.6932 14.9631 30.9091 14.8267C31.1307 14.6847 31.2415 14.4659 31.2415 14.1705V14.1193C31.2415 13.4773 31.0511 12.9801 30.6705 12.6278C30.2898 12.2756 29.7415 12.0994 29.0256 12.0994C28.2699 12.0994 27.6705 12.2642 27.2273 12.5938C26.7898 12.9233 26.4943 13.3125 26.3409 13.7614L23.4602 13.3523C23.6875 12.5568 24.0625 11.892 24.5852 11.358C25.108 10.8182 25.7472 10.4148 26.5028 10.1477C27.2585 9.875 28.0938 9.73864 29.0085 9.73864C29.6392 9.73864 30.267 9.8125 30.892 9.96023C31.517 10.108 32.0881 10.3523 32.6051 10.6932C33.1222 11.0284 33.5369 11.4858 33.8494 12.0653C34.1676 12.6449 34.3267 13.3693 34.3267 14.2386V23H31.3608V21.2017H31.2585C31.071 21.5653 30.8068 21.9062 30.4659 22.2244C30.1307 22.5369 29.7074 22.7898 29.196 22.983C28.6903 23.1705 28.0966 23.2642 27.4148 23.2642ZM28.2159 20.9972C28.8352 20.9972 29.3722 20.875 29.8267 20.6307C30.2813 20.3807 30.6307 20.0511 30.875 19.642C31.125 19.233 31.25 18.7869 31.25 18.304V16.7614C31.1534 16.8409 30.9886 16.9148 30.7557 16.983C30.5284 17.0511 30.2727 17.1108 29.9886 17.1619C29.7045 17.2131 29.4233 17.2585 29.1449 17.2983C28.8665 17.3381 28.625 17.3722 28.4205 17.4006C27.9602 17.4631 27.5483 17.5653 27.1847 17.7074C26.821 17.8494 26.5341 18.0483 26.3239 18.304C26.1136 18.554 26.0085 18.8778 26.0085 19.2756C26.0085 19.8438 26.2159 20.2727 26.6307 20.5625C27.0455 20.8523 27.5739 20.9972 28.2159 20.9972ZM40.4034 18.8239L45.6449 9.90909H48.8153V23H45.8324V14.0767L40.608 23H37.429V9.90909H40.4034V18.8239ZM44.8011 5.40909H47.1108C47.1108 6.40341 46.75 7.21023 46.0284 7.82954C45.3125 8.44318 44.3409 8.75 43.1136 8.75C41.8977 8.75 40.929 8.44318 40.2074 7.82954C39.4915 7.21023 39.1364 6.40341 39.142 5.40909H41.4347C41.4347 5.81818 41.5597 6.18466 41.8097 6.50852C42.0653 6.8267 42.5 6.98579 43.1136 6.98579C43.7159 6.98579 44.1449 6.8267 44.4006 6.50852C44.6619 6.19034 44.7955 5.82386 44.8011 5.40909ZM51.9837 23V9.90909H57.4808C59.032 9.90909 60.2564 10.2187 61.1541 10.8381C62.0575 11.4574 62.5092 12.321 62.5092 13.429C62.5092 14.1619 62.2536 14.7614 61.7422 15.2273C61.2365 15.6875 60.5462 15.9972 59.6712 16.1562C60.3587 16.2131 60.9609 16.3864 61.478 16.6761C62.0007 16.9659 62.4098 17.3466 62.7053 17.8182C63.0007 18.2898 63.1484 18.8324 63.1484 19.446C63.1484 20.1676 62.9581 20.7955 62.5774 21.3295C62.2024 21.858 61.6541 22.2699 60.9325 22.5653C60.2166 22.8551 59.3473 23 58.3246 23H51.9837ZM54.8729 20.571H58.3246C58.8928 20.571 59.3388 20.4375 59.6626 20.1705C59.9865 19.8977 60.1484 19.5284 60.1484 19.0625C60.1484 18.5227 59.9865 18.0994 59.6626 17.7926C59.3388 17.4801 58.8928 17.3239 58.3246 17.3239H54.8729V20.571ZM54.8729 15.3295H57.5405C57.9609 15.3295 58.3217 15.2699 58.6229 15.1506C58.924 15.0256 59.1541 14.8523 59.3132 14.6307C59.4723 14.4034 59.5518 14.1335 59.5518 13.821C59.5518 13.3722 59.3672 13.0199 58.9979 12.7642C58.6342 12.5085 58.1286 12.3807 57.4808 12.3807H54.8729V15.3295ZM69.4616 23.2642C68.6321 23.2642 67.8849 23.1165 67.2202 22.821C66.5611 22.5199 66.0384 22.0767 65.652 21.4915C65.2713 20.9062 65.081 20.1847 65.081 19.3267C65.081 18.5881 65.2173 17.9773 65.4901 17.4943C65.7628 17.0114 66.1349 16.625 66.6065 16.3352C67.0781 16.0455 67.6094 15.8267 68.2003 15.679C68.7969 15.5256 69.4134 15.4148 70.0497 15.3466C70.8168 15.267 71.4389 15.196 71.9162 15.1335C72.3935 15.0653 72.7401 14.9631 72.956 14.8267C73.1776 14.6847 73.2884 14.4659 73.2884 14.1705V14.1193C73.2884 13.4773 73.098 12.9801 72.7173 12.6278C72.3366 12.2756 71.7884 12.0994 71.0724 12.0994C70.3168 12.0994 69.7173 12.2642 69.2741 12.5938C68.8366 12.9233 68.5412 13.3125 68.3878 13.7614L65.5071 13.3523C65.7344 12.5568 66.1094 11.892 66.6321 11.358C67.1548 10.8182 67.794 10.4148 68.5497 10.1477C69.3054 9.875 70.1406 9.73864 71.0554 9.73864C71.6861 9.73864 72.3139 9.8125 72.9389 9.96023C73.5639 10.108 74.1349 10.3523 74.652 10.6932C75.169 11.0284 75.5838 11.4858 75.8963 12.0653C76.2145 12.6449 76.3736 13.3693 76.3736 14.2386V23H73.4077V21.2017H73.3054C73.1179 21.5653 72.8537 21.9062 72.5128 22.2244C72.1776 22.5369 71.7543 22.7898 71.2429 22.983C70.7372 23.1705 70.1435 23.2642 69.4616 23.2642ZM70.2628 20.9972C70.8821 20.9972 71.419 20.875 71.8736 20.6307C72.3281 20.3807 72.6776 20.0511 72.9219 19.642C73.1719 19.233 73.2969 18.7869 73.2969 18.304V16.7614C73.2003 16.8409 73.0355 16.9148 72.8026 16.983C72.5753 17.0511 72.3196 17.1108 72.0355 17.1619C71.7514 17.2131 71.4702 17.2585 71.1918 17.2983C70.9134 17.3381 70.6719 17.3722 70.4673 17.4006C70.0071 17.4631 69.5952 17.5653 69.2315 17.7074C68.8679 17.8494 68.581 18.0483 68.3707 18.304C68.1605 18.554 68.0554 18.8778 68.0554 19.2756C68.0554 19.8438 68.2628 20.2727 68.6776 20.5625C69.0923 20.8523 69.6207 20.9972 70.2628 20.9972ZM88.4673 15.1761V17.7074H81.4957V15.1761H88.4673ZM82.4503 9.90909V23H79.4759V9.90909H82.4503ZM90.4872 9.90909V23H87.5213V9.90909H90.4872ZM95.6967 14.1705H99.5575C101.228 14.1705 102.521 14.5767 103.435 15.3892C104.35 16.2017 104.81 17.267 104.816 18.5852C104.81 19.4432 104.6 20.2045 104.185 20.8693C103.776 21.5341 103.18 22.0568 102.396 22.4375C101.617 22.8125 100.671 23 99.5575 23H93.6087V9.90909H96.5831V20.4688H99.5575C100.228 20.4688 100.779 20.2983 101.211 19.9574C101.643 19.6108 101.859 19.1676 101.859 18.6278C101.859 18.0597 101.643 17.5966 101.211 17.2386C100.779 16.8807 100.228 16.7017 99.5575 16.7017H95.6967V14.1705Z" fill="white"/>
<path d="M1.05682 50V41.2727H4.72159C5.75568 41.2727 6.57197 41.4792 7.17045 41.892C7.77273 42.3049 8.07386 42.8807 8.07386 43.6193C8.07386 44.108 7.90341 44.5076 7.5625 44.8182C7.22538 45.125 6.76515 45.3314 6.18182 45.4375C6.64015 45.4754 7.04167 45.5909 7.38636 45.7841C7.73485 45.9773 8.00758 46.2311 8.20455 46.5455C8.40152 46.8598 8.5 47.2216 8.5 47.6307C8.5 48.1117 8.37311 48.5303 8.11932 48.8864C7.86932 49.2386 7.50379 49.5133 7.02273 49.7102C6.54545 49.9034 5.96591 50 5.28409 50H1.05682ZM2.98295 48.3807H5.28409C5.66288 48.3807 5.96023 48.2917 6.17614 48.1136C6.39205 47.9318 6.5 47.6856 6.5 47.375C6.5 47.0152 6.39205 46.733 6.17614 46.5284C5.96023 46.3201 5.66288 46.2159 5.28409 46.2159H2.98295V48.3807ZM2.98295 44.8864H4.76136C5.04167 44.8864 5.2822 44.8466 5.48295 44.767C5.68371 44.6837 5.83712 44.5682 5.94318 44.4205C6.04924 44.2689 6.10227 44.089 6.10227 43.8807C6.10227 43.5814 5.97917 43.3466 5.73295 43.1761C5.49053 43.0057 5.15341 42.9205 4.72159 42.9205H2.98295V44.8864ZM12.1804 47.2159L15.6747 41.2727H17.7884V50H15.7997V44.0511L12.3168 50H10.1974V41.2727H12.1804V47.2159ZM19.4176 47.608H21.4574C21.4763 47.9337 21.6222 48.1856 21.8949 48.3636C22.1676 48.5417 22.5218 48.6307 22.9574 48.6307C23.4006 48.6307 23.7737 48.5341 24.0767 48.3409C24.3835 48.1439 24.5369 47.8466 24.5369 47.4489C24.5369 47.214 24.4782 47.0076 24.3608 46.8295C24.2434 46.6477 24.0786 46.5076 23.8665 46.4091C23.6544 46.3106 23.4044 46.2614 23.1165 46.2614H21.7812V44.8011H23.1165C23.5445 44.8011 23.8684 44.7027 24.0881 44.5057C24.3116 44.3087 24.4233 44.0606 24.4233 43.7614C24.4233 43.4394 24.3059 43.178 24.071 42.9773C23.84 42.7765 23.5199 42.6761 23.1108 42.6761C22.7017 42.6761 22.3608 42.7689 22.0881 42.9545C21.8191 43.1402 21.679 43.3788 21.6676 43.6705H19.6392C19.6468 43.1629 19.7983 42.7216 20.0938 42.3466C20.393 41.9716 20.7945 41.6799 21.2983 41.4716C21.8059 41.2633 22.3778 41.1591 23.0142 41.1591C23.696 41.1591 24.285 41.2614 24.7812 41.4659C25.2775 41.6705 25.66 41.9564 25.929 42.3239C26.1979 42.6875 26.3324 43.1155 26.3324 43.608C26.3324 44.0814 26.1847 44.4735 25.8892 44.7841C25.5938 45.0909 25.196 45.3106 24.696 45.4432V45.5341C25.0407 45.553 25.3513 45.6515 25.6278 45.8295C25.9044 46.0038 26.1241 46.2405 26.2869 46.5398C26.4498 46.839 26.5312 47.1856 26.5312 47.5795C26.5312 48.1136 26.3778 48.5758 26.071 48.9659C25.7642 49.3523 25.3419 49.6496 24.804 49.858C24.2699 50.0663 23.6581 50.1705 22.9688 50.1705C22.2983 50.1705 21.6979 50.0701 21.1676 49.8693C20.6411 49.6648 20.2225 49.3712 19.9119 48.9886C19.6013 48.6061 19.4366 48.1458 19.4176 47.608ZM30.6619 50.1761C30.1089 50.1761 29.6108 50.0777 29.1676 49.8807C28.7282 49.6799 28.3797 49.3845 28.1222 48.9943C27.8684 48.6042 27.7415 48.1231 27.7415 47.5511C27.7415 47.0587 27.8324 46.6515 28.0142 46.3295C28.196 46.0076 28.4441 45.75 28.7585 45.5568C29.0729 45.3636 29.4271 45.2178 29.821 45.1193C30.2188 45.017 30.6297 44.9432 31.054 44.8977C31.5653 44.8447 31.9801 44.7973 32.2983 44.7557C32.6165 44.7102 32.8475 44.642 32.9915 44.5511C33.1392 44.4564 33.2131 44.3106 33.2131 44.1136V44.0795C33.2131 43.6515 33.0862 43.3201 32.8324 43.0852C32.5786 42.8504 32.2131 42.733 31.7358 42.733C31.232 42.733 30.8324 42.8428 30.5369 43.0625C30.2453 43.2822 30.0483 43.5417 29.946 43.8409L28.0256 43.5682C28.1771 43.0379 28.4271 42.5947 28.7756 42.2386C29.1241 41.8788 29.5502 41.6098 30.054 41.4318C30.5578 41.25 31.1146 41.1591 31.7244 41.1591C32.1449 41.1591 32.5634 41.2083 32.9801 41.3068C33.3968 41.4053 33.7775 41.5682 34.1222 41.7955C34.4669 42.0189 34.7434 42.3239 34.9517 42.7102C35.1638 43.0966 35.2699 43.5795 35.2699 44.1591V50H33.2926V48.8011H33.2244C33.0994 49.0436 32.9233 49.2708 32.696 49.483C32.4725 49.6913 32.1903 49.8598 31.8494 49.9886C31.5123 50.1136 31.1165 50.1761 30.6619 50.1761ZM31.196 48.6648C31.6089 48.6648 31.9669 48.5833 32.2699 48.4205C32.5729 48.2538 32.8059 48.0341 32.9688 47.7614C33.1354 47.4886 33.2188 47.1913 33.2188 46.8693V45.8409C33.1544 45.8939 33.0445 45.9432 32.8892 45.9886C32.7377 46.0341 32.5672 46.0739 32.3778 46.108C32.1884 46.142 32.0009 46.1723 31.8153 46.1989C31.6297 46.2254 31.4688 46.2481 31.3324 46.267C31.0256 46.3087 30.7509 46.3769 30.5085 46.4716C30.2661 46.5663 30.0748 46.6989 29.9347 46.8693C29.7945 47.036 29.7244 47.2519 29.7244 47.517C29.7244 47.8958 29.8627 48.1818 30.1392 48.375C30.4157 48.5682 30.768 48.6648 31.196 48.6648ZM47.3011 44.7841V46.4716H42.6534V44.7841H47.3011ZM43.2898 41.2727V50H41.3068V41.2727H43.2898ZM48.6477 41.2727V50H46.6705V41.2727H48.6477ZM53.2401 50.1761C52.687 50.1761 52.1889 50.0777 51.7457 49.8807C51.3063 49.6799 50.9579 49.3845 50.7003 48.9943C50.4465 48.6042 50.3196 48.1231 50.3196 47.5511C50.3196 47.0587 50.4105 46.6515 50.5923 46.3295C50.7741 46.0076 51.0223 45.75 51.3366 45.5568C51.651 45.3636 52.0052 45.2178 52.3991 45.1193C52.7969 45.017 53.2079 44.9432 53.6321 44.8977C54.1435 44.8447 54.5582 44.7973 54.8764 44.7557C55.1946 44.7102 55.4257 44.642 55.5696 44.5511C55.7173 44.4564 55.7912 44.3106 55.7912 44.1136V44.0795C55.7912 43.6515 55.6643 43.3201 55.4105 43.0852C55.1567 42.8504 54.7912 42.733 54.3139 42.733C53.8101 42.733 53.4105 42.8428 53.1151 43.0625C52.8234 43.2822 52.6264 43.5417 52.5241 43.8409L50.6037 43.5682C50.7552 43.0379 51.0052 42.5947 51.3537 42.2386C51.7022 41.8788 52.1283 41.6098 52.6321 41.4318C53.1359 41.25 53.6927 41.1591 54.3026 41.1591C54.723 41.1591 55.1416 41.2083 55.5582 41.3068C55.9749 41.4053 56.3556 41.5682 56.7003 41.7955C57.045 42.0189 57.3215 42.3239 57.5298 42.7102C57.742 43.0966 57.848 43.5795 57.848 44.1591V50H55.8707V48.8011H55.8026C55.6776 49.0436 55.5014 49.2708 55.2741 49.483C55.0507 49.6913 54.7685 49.8598 54.4276 49.9886C54.0904 50.1136 53.6946 50.1761 53.2401 50.1761ZM53.7741 48.6648C54.187 48.6648 54.545 48.5833 54.848 48.4205C55.151 48.2538 55.384 48.0341 55.5469 47.7614C55.7135 47.4886 55.7969 47.1913 55.7969 46.8693V45.8409C55.7325 45.8939 55.6226 45.9432 55.4673 45.9886C55.3158 46.0341 55.1454 46.0739 54.956 46.108C54.7666 46.142 54.5791 46.1723 54.3935 46.1989C54.2079 46.2254 54.0469 46.2481 53.9105 46.267C53.6037 46.3087 53.3291 46.3769 53.0866 46.4716C52.8442 46.5663 52.6529 46.6989 52.5128 46.8693C52.3726 47.036 52.3026 47.2519 52.3026 47.517C52.3026 47.8958 52.4408 48.1818 52.7173 48.375C52.9938 48.5682 53.3461 48.6648 53.7741 48.6648ZM68.0384 50.1591C67.2202 50.1591 66.4929 50.0189 65.8565 49.7386C65.224 49.4583 64.724 49.0682 64.3565 48.5682C63.9891 48.0682 63.794 47.4905 63.7713 46.8352H65.9077C65.9266 47.1496 66.0308 47.4242 66.2202 47.6591C66.4096 47.8902 66.6615 48.0701 66.9759 48.1989C67.2902 48.3277 67.6425 48.392 68.0327 48.392C68.4493 48.392 68.8187 48.3201 69.1406 48.1761C69.4626 48.0284 69.7145 47.8239 69.8963 47.5625C70.0781 47.3011 70.1671 47 70.1634 46.6591C70.1671 46.3068 70.0762 45.9962 69.8906 45.7273C69.705 45.4583 69.4361 45.2481 69.0838 45.0966C68.7353 44.9451 68.3149 44.8693 67.8224 44.8693H66.794V43.2443H67.8224C68.2277 43.2443 68.5819 43.1742 68.8849 43.0341C69.1918 42.8939 69.4323 42.697 69.6065 42.4432C69.7808 42.1856 69.866 41.8883 69.8622 41.5511C69.866 41.2216 69.7921 40.9356 69.6406 40.6932C69.4929 40.447 69.2827 40.2557 69.0099 40.1193C68.741 39.983 68.4247 39.9148 68.0611 39.9148C67.705 39.9148 67.3755 39.9792 67.0724 40.108C66.7694 40.2367 66.5251 40.4205 66.3395 40.6591C66.1539 40.8939 66.0554 41.1742 66.044 41.5H64.0156C64.0308 40.8485 64.2183 40.2765 64.5781 39.7841C64.9418 39.2879 65.4266 38.9015 66.0327 38.625C66.6387 38.3447 67.3187 38.2045 68.0724 38.2045C68.849 38.2045 69.5232 38.3504 70.0952 38.642C70.6709 38.9299 71.116 39.3182 71.4304 39.8068C71.7448 40.2955 71.902 40.8352 71.902 41.4261C71.9058 42.0814 71.7126 42.6307 71.3224 43.0739C70.9361 43.517 70.4285 43.8068 69.7997 43.9432V44.0341C70.6179 44.1477 71.2448 44.4508 71.6804 44.9432C72.1198 45.4318 72.3376 46.0398 72.3338 46.767C72.3338 47.4186 72.1482 48.0019 71.777 48.517C71.4096 49.0284 70.902 49.4299 70.2543 49.7216C69.6103 50.0133 68.8717 50.1591 68.0384 50.1591ZM84.0483 41.2727V42.9602H80.2869V50H78.2756V41.2727H84.0483ZM89.1449 50.1705C88.2926 50.1705 87.554 49.983 86.929 49.608C86.304 49.233 85.8191 48.7083 85.4744 48.0341C85.1335 47.3598 84.9631 46.572 84.9631 45.6705C84.9631 44.7689 85.1335 43.9792 85.4744 43.3011C85.8191 42.6231 86.304 42.0966 86.929 41.7216C87.554 41.3466 88.2926 41.1591 89.1449 41.1591C89.9972 41.1591 90.7358 41.3466 91.3608 41.7216C91.9858 42.0966 92.4688 42.6231 92.8097 43.3011C93.1544 43.9792 93.3267 44.7689 93.3267 45.6705C93.3267 46.572 93.1544 47.3598 92.8097 48.0341C92.4688 48.7083 91.9858 49.233 91.3608 49.608C90.7358 49.983 89.9972 50.1705 89.1449 50.1705ZM89.1562 48.5227C89.6184 48.5227 90.0047 48.3958 90.3153 48.142C90.6259 47.8845 90.857 47.5398 91.0085 47.108C91.1638 46.6761 91.2415 46.1951 91.2415 45.6648C91.2415 45.1307 91.1638 44.6477 91.0085 44.2159C90.857 43.7803 90.6259 43.4337 90.3153 43.1761C90.0047 42.9186 89.6184 42.7898 89.1562 42.7898C88.6828 42.7898 88.2888 42.9186 87.9744 43.1761C87.6638 43.4337 87.4309 43.7803 87.2756 44.2159C87.1241 44.6477 87.0483 45.1307 87.0483 45.6648C87.0483 46.1951 87.1241 46.6761 87.2756 47.108C87.4309 47.5398 87.6638 47.8845 87.9744 48.142C88.2888 48.3958 88.6828 48.5227 89.1562 48.5227ZM94.2997 52.5341V48.3068H94.9929C95.1785 48.1629 95.3338 47.9678 95.4588 47.7216C95.5838 47.4716 95.6861 47.178 95.7656 46.8409C95.849 46.5 95.9171 46.1193 95.9702 45.6989C96.0232 45.2746 96.0705 44.8182 96.1122 44.3295L96.3622 41.2727H102.669V48.3068H104.021V52.5341H102.033V50H96.3224V52.5341H94.2997ZM97.1065 48.3068H100.703V42.9318H98.1463L98.0099 44.3295C97.9342 45.2538 97.8338 46.0455 97.7088 46.7045C97.5838 47.3636 97.383 47.8977 97.1065 48.3068ZM108.068 50.1761C107.515 50.1761 107.017 50.0777 106.574 49.8807C106.134 49.6799 105.786 49.3845 105.528 48.9943C105.275 48.6042 105.148 48.1231 105.148 47.5511C105.148 47.0587 105.239 46.6515 105.42 46.3295C105.602 46.0076 105.85 45.75 106.165 45.5568C106.479 45.3636 106.833 45.2178 107.227 45.1193C107.625 45.017 108.036 44.9432 108.46 44.8977C108.972 44.8447 109.386 44.7973 109.705 44.7557C110.023 44.7102 110.254 44.642 110.398 44.5511C110.545 44.4564 110.619 44.3106 110.619 44.1136V44.0795C110.619 43.6515 110.492 43.3201 110.239 43.0852C109.985 42.8504 109.619 42.733 109.142 42.733C108.638 42.733 108.239 42.8428 107.943 43.0625C107.652 43.2822 107.455 43.5417 107.352 43.8409L105.432 43.5682C105.583 43.0379 105.833 42.5947 106.182 42.2386C106.53 41.8788 106.956 41.6098 107.46 41.4318C107.964 41.25 108.521 41.1591 109.131 41.1591C109.551 41.1591 109.97 41.2083 110.386 41.3068C110.803 41.4053 111.184 41.5682 111.528 41.7955C111.873 42.0189 112.15 42.3239 112.358 42.7102C112.57 43.0966 112.676 43.5795 112.676 44.1591V50H110.699V48.8011H110.631C110.506 49.0436 110.33 49.2708 110.102 49.483C109.879 49.6913 109.597 49.8598 109.256 49.9886C108.919 50.1136 108.523 50.1761 108.068 50.1761ZM108.602 48.6648C109.015 48.6648 109.373 48.5833 109.676 48.4205C109.979 48.2538 110.212 48.0341 110.375 47.7614C110.542 47.4886 110.625 47.1913 110.625 46.8693V45.8409C110.561 45.8939 110.451 45.9432 110.295 45.9886C110.144 46.0341 109.973 46.0739 109.784 46.108C109.595 46.142 109.407 46.1723 109.222 46.1989C109.036 46.2254 108.875 46.2481 108.739 46.267C108.432 46.3087 108.157 46.3769 107.915 46.4716C107.672 46.5663 107.481 46.6989 107.341 46.8693C107.201 47.036 107.131 47.2519 107.131 47.517C107.131 47.8958 107.269 48.1818 107.545 48.375C107.822 48.5682 108.174 48.6648 108.602 48.6648Z" fill="white"/>
</svg>
