<svg width="15" height="16" viewBox="0 0 15 16" fill="none" xmlns="http://www.w3.org/2000/svg">
<mask id="mask0_136_588" style="mask-type:luminance" maskUnits="userSpaceOnUse" x="4" y="0" width="7" height="7">
<path fillRule="evenodd" clipRule="evenodd" d="M4.0083 0H10.9791V6.38907H4.0083V0Z" fill="white"/>
</mask>
<g mask="url(#mask0_136_588)">
<path fillRule="evenodd" clipRule="evenodd" d="M10.4022 6.38905C10.0837 6.38905 9.82528 6.13059 9.82528 5.81212V3.47979C9.82528 2.19747 8.78297 1.15361 7.50064 1.15361C6.87679 1.17515 6.29217 1.39054 5.85063 1.82747C5.40908 2.26516 5.16447 2.84748 5.16216 3.46825V5.81212C5.16216 6.13059 4.90369 6.38905 4.58523 6.38905C4.26676 6.38905 4.0083 6.13059 4.0083 5.81212V3.47979C4.01215 2.5344 4.37754 1.66208 5.03831 1.00823C5.69832 0.353606 6.58448 0.0266792 7.50295 -0.000244141C9.41913 -0.000244141 10.9791 1.56131 10.9791 3.47979V5.81212C10.9791 6.13059 10.7207 6.38905 10.4022 6.38905Z" fill="white"/>
</g>
<mask id="mask1_136_588" style="mask-type:luminance" maskUnits="userSpaceOnUse" x="0" y="3" width="15" height="13">
<path fillRule="evenodd" clipRule="evenodd" d="M0 3.44214H15V15.3846H0V3.44214Z" fill="white"/>
</mask>
<g mask="url(#mask1_136_588)">
<path fillRule="evenodd" clipRule="evenodd" d="M3.85235 4.596C2.36464 4.596 1.15386 5.80524 1.15386 7.29218V11.5353C1.15386 13.0215 2.36464 14.2307 3.85235 14.2307H11.1478C12.6355 14.2307 13.8463 13.0215 13.8463 11.5353V7.29218C13.8463 5.80524 12.6355 4.596 11.1478 4.596H3.85235ZM11.1478 15.3846H3.85235C1.72848 15.3846 0 13.6576 0 11.5353V7.29218C0 5.16908 1.72848 3.44214 3.85235 3.44214H11.1478C13.2724 3.44214 15.0002 5.16908 15.0002 7.29218V11.5353C15.0002 13.6576 13.2724 15.3846 11.1478 15.3846Z" fill="white"/>
</g>
</svg>
