<svg width="36" height="37" viewBox="0 0 36 37" fill="none" xmlns="http://www.w3.org/2000/svg">
<path d="M17.5474 0.972656C22.3096 0.972656 22.9038 0.990184 24.7723 1.07782C26.6389 1.16546 27.9097 1.45817 29.0279 1.89285C30.1847 2.33804 31.1592 2.94099 32.1338 3.91376C33.025 4.78995 33.7147 5.84982 34.1547 7.01962C34.5876 8.13612 34.8821 9.40861 34.9697 11.2753C35.0521 13.1437 35.0749 13.7379 35.0749 18.5001C35.0749 23.2623 35.0574 23.8565 34.9697 25.7249C34.8821 27.5916 34.5876 28.8623 34.1547 29.9805C33.7159 31.151 33.0261 32.2111 32.1338 33.0864C31.2573 33.9774 30.1975 34.667 29.0279 35.1073C27.9114 35.5402 26.6389 35.8347 24.7723 35.9223C22.9038 36.0047 22.3096 36.0275 17.5474 36.0275C12.7852 36.0275 12.1911 36.01 10.3226 35.9223C8.45597 35.8347 7.18523 35.5402 6.06698 35.1073C4.89672 34.6682 3.83666 33.9785 2.96112 33.0864C2.06969 32.2104 1.38003 31.1504 0.94021 29.9805C0.505529 28.864 0.212821 27.5916 0.125184 25.7249C0.0428051 23.8565 0.0200195 23.2623 0.0200195 18.5001C0.0200195 13.7379 0.0375469 13.1437 0.125184 11.2753C0.212821 9.40685 0.505529 8.13787 0.94021 7.01962C1.37881 5.8491 2.06863 4.78894 2.96112 3.91376C3.83692 3.02202 4.8969 2.33231 6.06698 1.89285C7.18523 1.45817 8.45422 1.16546 10.3226 1.07782C12.1911 0.995442 12.7852 0.972656 17.5474 0.972656ZM17.5474 9.73637C15.2232 9.73637 12.9941 10.6597 11.3506 12.3032C9.70705 13.9467 8.78373 16.1758 8.78373 18.5001C8.78373 20.8244 9.70705 23.0534 11.3506 24.697C12.9941 26.3405 15.2232 27.2638 17.5474 27.2638C19.8717 27.2638 22.1008 26.3405 23.7443 24.697C25.3878 23.0534 26.3112 20.8244 26.3112 18.5001C26.3112 16.1758 25.3878 13.9467 23.7443 12.3032C22.1008 10.6597 19.8717 9.73637 17.5474 9.73637ZM28.9403 9.29818C28.9403 8.71711 28.7094 8.15984 28.2986 7.74896C27.8877 7.33809 27.3304 7.10726 26.7493 7.10726C26.1683 7.10726 25.611 7.33809 25.2001 7.74896C24.7892 8.15984 24.5584 8.71711 24.5584 9.29818C24.5584 9.87925 24.7892 10.4365 25.2001 10.8474C25.611 11.2583 26.1683 11.4891 26.7493 11.4891C27.3304 11.4891 27.8877 11.2583 28.2986 10.8474C28.7094 10.4365 28.9403 9.87925 28.9403 9.29818ZM17.5474 13.2419C18.942 13.2419 20.2795 13.7958 21.2656 14.782C22.2517 15.7681 22.8057 17.1055 22.8057 18.5001C22.8057 19.8947 22.2517 21.2321 21.2656 22.2182C20.2795 23.2043 18.942 23.7583 17.5474 23.7583C16.1529 23.7583 14.8154 23.2043 13.8293 22.2182C12.8432 21.2321 12.2892 19.8947 12.2892 18.5001C12.2892 17.1055 12.8432 15.7681 13.8293 14.782C14.8154 13.7958 16.1529 13.2419 17.5474 13.2419Z" fill="white"/>
</svg>
