<svg width="36" height="37" viewBox="0 0 36 37" fill="none" xmlns="http://www.w3.org/2000/svg">
<path d="M17.5274 8.07752C11.8388 8.07752 7.21441 12.7019 7.20659 18.3905C7.20659 20.3389 7.75432 22.2403 8.78719 23.8757L9.02975 24.2669L7.98906 28.0697L11.8936 27.0447L12.2692 27.2716C13.8498 28.2106 15.6651 28.7114 17.5196 28.7114H17.5274C23.2082 28.7114 27.9578 24.087 27.9578 18.3984C27.9578 15.6441 26.7685 13.0541 24.8201 11.1057C22.8639 9.14951 20.2817 8.07752 17.5274 8.07752ZM23.5916 22.8193C23.3334 23.547 22.0971 24.2043 21.5024 24.2904C20.5165 24.4391 19.7497 24.3608 17.7856 23.5157C14.6792 22.1699 12.6448 19.04 12.4883 18.8365C12.3318 18.6331 11.2207 17.1542 11.2207 15.6284C11.2207 14.1026 12.0188 13.3514 12.3083 13.0384C12.59 12.7254 12.9265 12.6472 13.1377 12.6472C13.3412 12.6472 13.5525 12.6472 13.7324 12.655C13.9202 12.6628 14.1784 12.5846 14.4288 13.1871C14.687 13.8052 15.3052 15.3311 15.3834 15.4876C15.4617 15.6441 15.5165 15.824 15.4069 16.0275C14.8122 17.2168 14.1784 17.1699 14.4993 17.7176C15.6964 19.7755 16.8936 20.4876 18.7168 21.4031C19.0298 21.5596 19.2097 21.5361 19.3897 21.3248C19.5697 21.1214 20.1644 20.4171 20.3678 20.112C20.5713 19.799 20.7825 19.8538 21.0642 19.9555C21.3459 20.0572 22.8717 20.8084 23.1847 20.9649C23.4977 21.1214 23.7012 21.1996 23.7794 21.3248C23.8498 21.4735 23.8498 22.0995 23.5916 22.8193ZM31.299 0.972656H3.75588C1.68232 0.972656 0 2.65498 0 4.72853V32.2716C0 34.3452 1.68232 36.0275 3.75588 36.0275H31.299C33.3725 36.0275 35.0549 34.3452 35.0549 32.2716V4.72853C35.0549 2.65498 33.3725 0.972656 31.299 0.972656ZM17.5196 30.8006C15.4382 30.8006 13.396 30.2763 11.5884 29.2904L5.00784 31.0197L6.7684 24.5877C5.68076 22.7098 5.10956 20.5736 5.10956 18.3827C5.11738 11.5439 10.6808 5.98049 17.5196 5.98049C20.8373 5.98049 23.9515 7.27158 26.299 9.619C28.6386 11.9664 30.047 15.0807 30.047 18.3984C30.047 25.2372 24.3584 30.8006 17.5196 30.8006Z" fill="white"/>
</svg>
