<svg width="12" height="15" viewBox="0 0 12 15" fill="none" xmlns="http://www.w3.org/2000/svg">
<path d="M7.52 0.727295C7.79984 0.727367 8.07256 0.815485 8.29954 0.979167C8.52652 1.14285 8.69624 1.3738 8.78467 1.63929L9.14667 2.72729H11.3333C11.5101 2.72729 11.6797 2.79753 11.8047 2.92256C11.9298 3.04758 12 3.21715 12 3.39396C12 3.57077 11.9298 3.74034 11.8047 3.86537C11.6797 3.99039 11.5101 4.06063 11.3333 4.06063L11.3313 4.10796L10.7533 12.2033C10.7173 12.7077 10.4915 13.1797 10.1214 13.5243C9.75126 13.8689 9.26436 14.0606 8.75867 14.0606H3.24133C2.73564 14.0606 2.24874 13.8689 1.87864 13.5243C1.50855 13.1797 1.28274 12.7077 1.24667 12.2033L0.668667 4.1073C0.66746 4.09177 0.666793 4.0762 0.666667 4.06063C0.489856 4.06063 0.320286 3.99039 0.195262 3.86537C0.0702379 3.74034 0 3.57077 0 3.39396C0 3.21715 0.0702379 3.04758 0.195262 2.92256C0.320286 2.79753 0.489856 2.72729 0.666667 2.72729H2.85333L3.21533 1.63929C3.3038 1.37369 3.47362 1.14266 3.70073 0.978972C3.92784 0.81528 4.20071 0.727228 4.48067 0.727295H7.51933H7.52ZM9.998 4.06063H2.002L2.57667 12.108C2.58863 12.2761 2.66385 12.4335 2.78717 12.5484C2.9105 12.6633 3.07277 12.7272 3.24133 12.7273H8.75867C8.92723 12.7272 9.0895 12.6633 9.21283 12.5484C9.33615 12.4335 9.41137 12.2761 9.42333 12.108L9.998 4.06063ZM4.66667 6.06063C4.82996 6.06065 4.98756 6.1206 5.10958 6.2291C5.23161 6.33761 5.30956 6.48713 5.32867 6.6493L5.33333 6.72729V10.0606C5.33315 10.2305 5.26808 10.394 5.15143 10.5175C5.03479 10.6411 4.87536 10.7155 4.70574 10.7254C4.53611 10.7354 4.36908 10.6802 4.23878 10.5711C4.10848 10.4621 4.02474 10.3074 4.00467 10.1386L4 10.0606V6.72729C4 6.55048 4.07024 6.38092 4.19526 6.25589C4.32029 6.13087 4.48986 6.06063 4.66667 6.06063ZM7.33333 6.06063C7.51014 6.06063 7.67971 6.13087 7.80474 6.25589C7.92976 6.38092 8 6.55048 8 6.72729V10.0606C8 10.2374 7.92976 10.407 7.80474 10.532C7.67971 10.6571 7.51014 10.7273 7.33333 10.7273C7.15652 10.7273 6.98695 10.6571 6.86193 10.532C6.73691 10.407 6.66667 10.2374 6.66667 10.0606V6.72729C6.66667 6.55048 6.73691 6.38092 6.86193 6.25589C6.98695 6.13087 7.15652 6.06063 7.33333 6.06063ZM7.52 2.06063H4.48L4.258 2.72729H7.742L7.51933 2.06063H7.52Z" fill="black"/>
</svg>
