<svg width="39" height="39" viewBox="0 0 39 39" fill="none" xmlns="http://www.w3.org/2000/svg">
<path d="M16.77 23.01L12.5288 18.7688C12.1713 18.4113 11.7325 18.2325 11.2125 18.2325C10.6925 18.2325 10.2375 18.4275 9.8475 18.8175C9.49 19.175 9.31125 19.63 9.31125 20.1825C9.31125 20.735 9.49 21.19 9.8475 21.5475L15.405 27.105C15.7625 27.4625 16.2175 27.6412 16.77 27.6412C17.3225 27.6412 17.7775 27.4625 18.135 27.105L29.2013 16.0388C29.5588 15.6813 29.7375 15.2425 29.7375 14.7225C29.7375 14.2025 29.5425 13.7475 29.1525 13.3575C28.795 13 28.34 12.8212 27.7875 12.8212C27.235 12.8212 26.78 13 26.4225 13.3575L16.77 23.01ZM19.5 39C16.8025 39 14.2675 38.4878 11.895 37.4634C9.5225 36.4403 7.45875 35.0513 5.70375 33.2963C3.94875 31.5413 2.5597 29.4775 1.5366 27.105C0.5122 24.7325 0 22.1975 0 19.5C0 16.8025 0.5122 14.2675 1.5366 11.895C2.5597 9.5225 3.94875 7.45875 5.70375 5.70375C7.45875 3.94875 9.5225 2.55905 11.895 1.53465C14.2675 0.51155 16.8025 0 19.5 0C22.1975 0 24.7325 0.51155 27.105 1.53465C29.4775 2.55905 31.5413 3.94875 33.2963 5.70375C35.0513 7.45875 36.4403 9.5225 37.4634 11.895C38.4878 14.2675 39 16.8025 39 19.5C39 22.1975 38.4878 24.7325 37.4634 27.105C36.4403 29.4775 35.0513 31.5413 33.2963 33.2963C31.5413 35.0513 29.4775 36.4403 27.105 37.4634C24.7325 38.4878 22.1975 39 19.5 39Z" fill="white"/>
</svg>
