<svg width="487" height="498" viewBox="0 0 487 498" fill="none" xmlns="http://www.w3.org/2000/svg">
<g clip-path="url(#clip0_218_143)">
<path d="M480.107 55L345.107 187.55" stroke="#F5992B" stroke-width="2"/>
<path d="M242.609 134.005L242.602 4" stroke="#F5992B" stroke-width="2"/>
<path d="M479.108 324.694L348.292 324.726" stroke="#F5992B" stroke-width="2"/>
<path d="M137.136 324.694L6 324.619" stroke="#F5992B" stroke-width="2"/>
<path d="M244.102 383.962V494" stroke="#F5992B" stroke-width="2"/>
<path d="M8.4517 49.7441L144.33 181.966" stroke="#F5992B" stroke-width="2"/>
<ellipse cx="243.5" cy="4" rx="6.5" ry="4" fill="#F5992B"/>
<ellipse cx="5.55044" cy="48.2425" rx="6.5" ry="4" transform="rotate(-40 5.55044 48.2425)" fill="#F5992B"/>
<ellipse cx="480.005" cy="57.6185" rx="6.5" ry="4" transform="rotate(-125 480.005 57.6185)" fill="#F5992B"/>
<ellipse cx="4" cy="325.5" rx="6.5" ry="4" transform="rotate(-90 4 325.5)" fill="#F5992B"/>
<ellipse cx="244.5" cy="494" rx="6.5" ry="4" fill="#F5992B"/>
<ellipse cx="475" cy="325.5" rx="6.5" ry="4" transform="rotate(-90 475 325.5)" fill="#F5992B"/>
</g>
<defs>
<clipPath id="clip0_218_143">
<rect width="487" height="498" fill="white"/>
</clipPath>
</defs>
</svg>
