<svg width="1440" height="197" viewBox="0 0 1440 197" fill="none" xmlns="http://www.w3.org/2000/svg">
<path opacity="0.03" d="M-28.926 12.9237C-12.8273 4.87432 5.23896 0.849649 25.2729 0.849649C38.1518 0.849649 50.4047 2.9067 62.0315 7.02081C73.6583 10.956 84.3013 16.8589 93.9605 24.7294C103.62 32.4209 111.311 42.8851 117.035 56.1218C122.759 69.1796 125.621 84.1156 125.621 100.93C125.621 113.809 123.654 125.614 119.718 136.347C115.962 147.079 110.864 156.112 104.425 163.446C97.9852 170.601 90.383 176.772 81.6182 181.96C72.8534 186.968 63.6414 190.546 53.9822 192.692C44.5018 195.018 34.5743 196.18 24.1996 196.18C5.41783 196.18 -12.2907 192.156 -28.926 184.106V144.396C-17.1203 154.771 -1.37938 159.958 18.2968 159.958C35.8264 159.958 50.673 156.56 62.8364 149.762C74.9999 142.786 82.4231 131.428 85.1063 115.687H0.319922V81.0747H84.3013C78.7562 52.0971 57.023 37.4294 19.1017 37.0717C-0.57445 37.0717 -16.5837 41.8118 -28.926 51.2922V12.9237ZM174.003 192.424H136.708V63.6345H174.003V111.662H189.565L222.299 63.6345H264.156L219.884 127.224L267.912 192.424H226.056L189.029 141.445H174.003V192.424ZM256.23 129.907C256.23 118.102 258.287 107.548 262.401 98.2466C266.694 88.9452 272.329 81.6113 279.305 76.2451C286.281 70.7 293.972 66.5859 302.38 63.9028C310.787 61.0408 319.641 59.6098 328.942 59.6098C343.789 59.6098 357.026 62.7401 368.652 69.0007V101.735C358.635 95.2952 347.188 92.0755 334.309 92.0755C323.04 92.0755 313.559 95.0269 305.868 100.93C298.176 106.833 294.33 115.866 294.33 128.029C294.33 139.656 298.176 148.6 305.868 154.86C313.559 160.942 322.861 163.983 333.772 163.983C347.545 163.983 359.619 160.853 369.994 154.592V187.594C356.578 193.318 342.09 196.18 326.528 196.18C307.209 196.18 290.663 190.546 276.89 179.277C263.117 167.829 256.23 151.372 256.23 129.907ZM419.676 192.424H382.38V63.6345H419.676V111.662H435.238L467.972 63.6345H509.828L465.557 127.224L513.585 192.424H471.728L434.701 141.445H419.676V192.424ZM573.11 93.1487C572.037 108.89 570.516 122.484 568.549 133.932C566.76 145.201 564.077 155.755 560.499 165.593C556.922 175.252 552.092 182.586 546.01 187.594C539.929 192.603 532.595 195.107 524.009 195.107C517.391 195.107 510.593 193.855 503.617 191.351V161.836C506.3 162.91 508.894 163.446 511.398 163.446C520.7 163.446 527.229 155.129 530.985 138.493C534.741 121.858 537.335 96.9051 538.766 63.6345H643.407V192.424H606.112V93.1487H573.11ZM840.824 77.855C854.597 89.8395 861.483 106.564 861.483 128.029C861.483 149.494 854.597 166.219 840.824 178.203C827.05 190.188 810.236 196.18 790.381 196.18C773.925 196.18 759.257 191.529 746.378 182.228C733.499 172.748 725.45 159.6 722.23 142.786H698.887V192.424H661.592V63.6345H698.887V113.272H722.23C725.45 96.4579 733.499 83.4001 746.378 74.0986C759.257 64.6183 773.925 59.8781 790.381 59.8781C810.236 59.8781 827.05 65.8704 840.824 77.855ZM765.965 102.003C760.241 108.8 757.379 117.476 757.379 128.029C757.379 138.583 760.241 147.348 765.965 154.324C771.689 161.121 779.827 164.519 790.381 164.519C801.113 164.519 809.342 161.121 815.066 154.324C820.79 147.348 823.652 138.583 823.652 128.029C823.652 117.476 820.79 108.8 815.066 102.003C809.342 95.0269 801.113 91.5388 790.381 91.5388C779.827 91.5388 771.689 95.0269 765.965 102.003ZM976.61 156.738C976.61 167.65 971.244 176.951 960.511 184.643C949.779 192.156 934.038 195.912 913.288 195.912C893.97 195.912 877.603 192.424 864.188 185.448V155.665C869.375 158.527 876.172 161.121 884.579 163.446C892.986 165.593 900.946 166.666 908.459 166.666C928.493 166.666 938.51 161.836 938.51 152.177C938.51 147.169 936.274 143.86 931.802 142.25C927.509 140.461 921.517 139.567 913.825 139.567H889.945V114.882H913.825C928.493 114.882 935.827 110.857 935.827 102.808C935.827 93.6853 927.42 89.124 910.605 89.124C903.45 89.124 895.669 90.1973 887.262 92.3438C878.855 94.4902 871.969 96.9945 866.602 99.8565V70.3422C880.018 63.1873 896.206 59.6098 915.167 59.6098C935.737 59.6098 950.673 63.3662 959.975 70.8789C969.276 78.2127 973.927 87.2458 973.927 97.9783C973.927 105.312 971.87 111.394 967.756 116.223C963.82 121.053 958.633 124.362 952.194 126.151C968.471 131.159 976.61 141.355 976.61 156.738ZM1020.69 192.424H988.229V63.6345H1025.52V136.078L1082.94 63.6345H1115.14V192.424H1078.11V119.98L1020.69 192.424ZM1212.22 192.424H1133.34V63.6345H1210.07C1224.38 63.6345 1235.03 66.9436 1242 73.562C1248.98 80.0015 1252.47 88.0508 1252.47 97.71C1252.47 112.378 1245.85 122.216 1232.61 127.224C1247.82 132.233 1255.42 142.339 1255.42 157.543C1255.42 167.739 1252.02 176.146 1245.22 182.765C1238.43 189.204 1227.42 192.424 1212.22 192.424ZM1170.63 139.03V166.934H1201.22C1212.67 166.934 1218.39 162.373 1218.39 153.25C1218.39 143.77 1212.67 139.03 1201.22 139.03H1170.63ZM1170.36 89.124V116.492H1198.81C1209.54 116.492 1214.9 112.02 1214.9 103.076C1214.9 93.7748 1209.45 89.124 1198.54 89.124H1170.36ZM1334.26 192.424H1267.18V63.6345H1304.47V103.881H1334.26C1350.53 103.881 1363.23 108.085 1372.36 116.492C1381.66 124.72 1386.31 135.274 1386.31 148.152C1386.31 161.031 1381.66 171.674 1372.36 180.082C1363.23 188.31 1350.53 192.424 1334.26 192.424ZM1304.21 130.712V165.593H1325.13C1332.47 165.593 1338.1 164.072 1342.04 161.031C1345.97 157.991 1347.94 153.698 1347.94 148.152C1347.94 142.607 1345.97 138.314 1342.04 135.274C1338.1 132.233 1332.47 130.712 1325.13 130.712H1304.21ZM1444.53 192.424H1407.24V63.6345H1444.53V192.424Z" fill="black"/>
</svg>
